<?xml version="1.0" encoding="UTF-8" standalone="no"?>
<!-- Created with Inkscape (http://www.inkscape.org/) -->

<svg
   width="1920"
   height="367"
   viewBox="0 0 507.99998 97.102091"
   version="1.1"
   id="svg1"
   xml:space="preserve"
   inkscape:version="1.4 (86a8ad7, 2024-10-11)"
   sodipodi:docname="logo-vector-horizontal-dark.svg"
   inkscape:export-filename="logo-vector-horizontal.png"
   inkscape:export-xdpi="96"
   inkscape:export-ydpi="96"
   xmlns:inkscape="http://www.inkscape.org/namespaces/inkscape"
   xmlns:sodipodi="http://sodipodi.sourceforge.net/DTD/sodipodi-0.dtd"
   xmlns="http://www.w3.org/2000/svg"
   xmlns:svg="http://www.w3.org/2000/svg"><sodipodi:namedview
     id="namedview1"
     pagecolor="#ffffff"
     bordercolor="#000000"
     borderopacity="0.25"
     inkscape:showpageshadow="2"
     inkscape:pageopacity="0.0"
     inkscape:pagecheckerboard="true"
     inkscape:deskcolor="#d1d1d1"
     inkscape:document-units="px"
     inkscape:zoom="0.93"
     inkscape:cx="970.43011"
     inkscape:cy="420.96774"
     inkscape:window-width="2560"
     inkscape:window-height="1494"
     inkscape:window-x="-11"
     inkscape:window-y="-11"
     inkscape:window-maximized="1"
     inkscape:current-layer="layer6"
     showgrid="false"
     showguides="true"><inkscape:grid
       id="grid1"
       units="mm"
       originx="0"
       originy="0"
       spacingx="0.99999998"
       spacingy="1"
       empcolor="#0099e5"
       empopacity="0.30196078"
       color="#0099e5"
       opacity="0.14901961"
       empspacing="5"
       dotted="false"
       gridanglex="30"
       gridanglez="30"
       visible="false" /></sodipodi:namedview><defs
     id="defs1" /><g
     inkscape:groupmode="layer"
     id="layer1"
     inkscape:label="temp background"
     style="display:none;fill:#4d4d4d;fill-opacity:1"><rect
       style="fill:#4d4d4d;fill-opacity:1;stroke-width:0.264583"
       id="rect1"
       width="513.51929"
       height="100.71237"
       x="-1.9914875"
       y="-1.7069893" /></g><g
     inkscape:groupmode="layer"
     id="layer7"
     inkscape:label="Center Line"
     style="display:none"
     sodipodi:insensitive="true"><path
       style="fill:#ff0000;stroke:#ff0000;stroke-width:0.375869px;stroke-linecap:butt;stroke-linejoin:miter;stroke-opacity:1"
       d="m 142.875,83.301228 c 0,98.923502 0,100.056202 0,100.056202"
       id="path16"
       inkscape:label="Red Center Line" /></g><g
     inkscape:groupmode="layer"
     id="layer5"
     inkscape:label="Bottom Line"
     style="display:none"><path
       style="display:inline;fill:none;stroke:#07ff00;stroke-width:1.26941;stroke-linecap:butt;stroke-linejoin:miter;stroke-dasharray:none;stroke-opacity:1"
       d="m 351.95048,277.15084 c -256.938142,0 -256.938142,0 -256.938142,0"
       id="path18" /></g><g
     inkscape:groupmode="layer"
     id="layer8"
     inkscape:label="Background"
     style="display:none"><rect
       style="display:inline;fill:#fff4e0;fill-opacity:1;stroke:none;stroke-width:0;stroke-linecap:round;stroke-linejoin:round;stroke-opacity:1"
       id="rect115"
       width="507.99997"
       height="285.75"
       x="-4.9999999e-06"
       y="-4.9999999e-06"
       inkscape:label="Full Background"
       sodipodi:insensitive="true" /><circle
       style="display:inline;fill:#00ff00;fill-opacity:1;stroke:#ff0000;stroke-width:0;stroke-linecap:round;stroke-linejoin:round;stroke-opacity:1"
       id="path115"
       cx="253.99998"
       cy="142.875"
       r="142.875"
       inkscape:label="Centered Circle"
       sodipodi:insensitive="true" /></g><g
     inkscape:groupmode="layer"
     id="layer9"
     inkscape:label="Cup Color"
     style="display:none;opacity:1;fill:#ffbf9b;fill-opacity:1;stroke:none"><path
       id="path117"
       style="display:inline;opacity:1;fill:#ffbf9b;fill-opacity:1;stroke:none;stroke-width:0.22688px;stroke-linecap:butt;stroke-linejoin:miter;stroke-opacity:1"
       d="M 63.672374,1.9918251 C 62.923807,2.0072262 62.229349,2.043887 61.597654,2.1039789 51.490657,3.0665393 33.602879,4.7509577 27.426388,7.237604 21.249896,9.7242305 18.522315,12.291238 17.39932,14.45701 c -1.123002,2.165783 -0.641741,4.892882 0.240616,6.096095 0.882357,1.203213 1.444149,3.208685 1.444149,3.208685 -0.80214,0 -5.935903,-0.320855 -8.101681,0.08027 -2.1657867,0.401054 -8.8239511,4.331536 -9.1448055,8.823534 -0.3208566,4.492017 -0.079873,17.487021 1.0431214,18.690225 1.1229993,1.203232 5.0534694,5.61488 8.8235371,5.695091 3.770061,0.08027 8.021412,-0.641797 8.663124,-0.08019 0.641711,0.561497 4.090839,9.064435 5.133622,10.50831 1.042788,1.443846 9.385423,10.42793 13.877393,12.272821 4.492006,1.844929 16.363546,5.775312 27.513293,5.454458 11.149783,-0.320854 27.59379,-8.101516 29.278254,-9.705803 1.684507,-1.604288 10.107177,-13.717064 11.149967,-17.246482 1.04278,-3.529407 1.20308,-35.855649 1.20308,-35.855649 0,0 3.20866,-3.208465 3.44932,-5.133626 0.24059,-1.925108 -3.77006,-7.5404854 -8.90376,-9.3051843 C 98.2557,6.3051493 74.900792,1.7604922 63.672374,1.991984 Z M 61.717746,8.2000255 A 35.093838,7.9813416 0 0 1 91.123621,11.828353 35.093838,7.9813416 0 0 0 68.009253,9.852461 35.093838,7.9813416 0 0 0 32.915404,17.833596 35.093838,7.9813416 0 0 0 38.668957,22.19487 35.093838,7.9813416 0 0 1 26.623887,16.181638 35.093838,7.9813416 0 0 1 61.717746,8.2000255 Z M 35.287456,27.852704 h 2.646797 v 13.074937 h -2.646797 z m -24.465465,5.69507 h 7.218975 v 13.396201 h -7.218975 z m 65.053644,26.150283 h 2.647244 v 2.486368 h -2.647244 z"
       inkscape:label="Cup Fill" /><path
       id="path121"
       style="opacity:1;fill:#fff4e0;fill-opacity:1;stroke:none;stroke-width:0;stroke-linecap:round;stroke-linejoin:round;stroke-opacity:1"
       d="M 62.941218,8.3604373 A 36.397328,8.0214483 0 0 0 26.543683,16.381921 36.397328,8.0214483 0 0 0 40.431707,22.667233 36.397328,8.0214483 0 0 1 32.020726,17.556659 36.397328,8.0214483 0 0 1 68.418266,9.5356216 36.397328,8.0214483 0 0 1 90.921996,11.254507 36.397328,8.0214483 0 0 0 62.941218,8.3604373 Z M 35.367665,27.993173 v 12.392953 h 2.345909 V 27.993173 Z m 41.784177,32.156432 a 0.85434806,0.85434806 0 0 0 -0.854349,0.85432 0.85434806,0.85434806 0 0 0 0.854349,0.85436 0.85434806,0.85434806 0 0 0 0.854357,-0.85436 0.85434806,0.85434806 0 0 0 -0.854357,-0.85432 z"
       inkscape:label="Highlights" /></g><path
     id="path20"
     style="display:inline;opacity:1;fill:#fff4e0;fill-opacity:1;stroke:none;stroke-width:0;stroke-linecap:round;stroke-linejoin:round"
     inkscape:label="Cup"
     d="M 64.036097,0.65494739 A 50.08654,16.053378 0 0 0 13.94967,16.708191 a 50.08654,16.053378 0 0 0 3.494229,5.756463 h -5.96168 v 0.002 a 10.803167,10.803167 0 0 0 -0.0729,-0.005 l -0.0036,-0.002 A 10.803167,10.803167 0 0 0 0.61068482,33.156693 h -0.008893 v 14.437924 h 0.008893 a 10.803167,10.803167 0 0 0 10.79589918,10.702938 10.803167,10.803167 0 0 0 0.131531,-0.009 h 7.333298 a 46.429369,36.718456 0 0 0 12.496165,18.24535 H 14.97761 a 3.8559531,3.8559531 0 0 0 -0.0756,-9.93e-4 v -9.94e-4 a 3.8559531,3.8559531 0 0 0 -3.856421,3.855667 3.8559531,3.8559531 0 0 0 3.834434,3.854482 v 0.0031 h 12.441389 v 0.0079 a 1.4653693,1.4653693 0 0 1 0.02821,-0.0079 h 0.433156 a 1.4653693,1.4653693 0 0 1 1.251666,1.407482 1.4653693,1.4653693 0 0 1 -1.059182,1.400932 h -0.653789 -7.155482 v 0.0079 a 3.3606166,3.3606166 0 0 0 -3.334158,3.358464 3.3606166,3.3606166 0 0 0 3.361545,3.361145 3.3606166,3.3606166 0 0 0 0.09991,-0.0079 h 23.376116 a 3.8559531,3.8559531 0 0 0 3.673975,2.742858 v 7.45e-4 H 92.51999 a 3.8559531,3.8559531 0 0 0 0.0053,0 3.8559531,3.8559531 0 0 0 3.856819,-3.856798 3.8559531,3.8559531 0 0 0 -3.856819,-3.855269 3.8559531,3.8559531 0 0 0 -0.0053,0 h -0.799223 a 2.3734854,2.3734854 0 0 1 -1.801309,-2.264962 2.3734854,2.3734854 0 0 1 1.900055,-2.295016 h 17.758147 v -0.0099 a 3.8559531,3.8559531 0 0 0 0.13962,0.0099 3.8559531,3.8559531 0 0 0 3.85564,-3.856431 3.8559531,3.8559531 0 0 0 -3.85564,-3.855248 3.8559531,3.8559531 0 0 0 -0.13962,0.0099 v -0.0089 H 96.935691 A 46.429369,36.718456 0 0 0 110.55429,50.976155 h 0.0109 v -0.110318 a 46.429369,36.718456 0 0 0 0.0157,-0.181683 46.429369,36.718456 0 0 0 -0.0157,-0.551561 v -27.58126 a 50.08654,16.053378 0 0 0 3.55637,-5.84209 A 50.08654,16.053378 0 0 0 64.03514,0.65599064 Z m 0.03163,3.37888191 v 3.873e-4 h 3.85e-4 a 45.952586,13.066245 0 0 1 45.951898,13.0670194 45.952586,13.066245 0 0 1 -3.32336,4.854272 v 2.978524 a 49.099082,15.736888 0 0 0 7.6e-4,-9.93e-4 v 23.594099 a 42.653277,34.515288 0 0 1 0.0138,0.518423 42.653277,34.515288 0 0 1 -0.0138,0.170875 v 0.103358 h -0.0104 A 42.653277,34.515288 0 0 1 64.058522,83.560151 42.653277,34.515288 0 0 1 21.429981,49.319857 h -0.02238 v -0.246881 a 42.653277,34.515288 0 0 1 -0.0038,-0.02732 42.653277,34.515288 0 0 1 0.0038,-0.02832 V 24.974283 22.267681 21.929032 A 45.952586,13.066245 0 0 1 18.115504,17.101345 45.952586,13.066245 0 0 1 64.06779,4.0343359 Z m -0.168948,2.4527954 3.79e-4,3.874e-4 a 42.984711,10.544797 0 0 0 -42.984553,10.5440289 42.984711,10.544797 0 0 0 14.32563,7.855162 5.5931699,5.5931699 0 0 0 -0.655743,2.554238 5.5931699,5.5931699 0 0 0 0.0053,0.06259 v 18.821993 a 5.5931699,5.5931699 0 0 0 -0.0037,0.05107 5.5931699,5.5931699 0 0 0 5.592935,5.593308 5.5931699,5.5931699 0 0 0 5.59253,-5.58058 h 0.0015 v -6.642881 a 5.4590171,5.4590171 0 0 1 5.230365,-4.040807 5.4590171,5.4590171 0 0 1 5.306717,4.233281 V 58.38161 a 5.8836566,5.8836566 0 0 0 -0.0037,0.05286 5.8836566,5.8836566 0 0 0 5.884146,5.884148 5.8836566,5.8836566 0 0 0 5.882223,-5.870646 h 0.0015 V 39.699173 a 3.2816019,3.2816019 0 0 1 3.206097,-2.817297 3.2816019,3.2816019 0 0 1 3.185269,2.672264 v 11.568508 a 4.216327,4.216327 0 0 0 -0.0037,0.03834 4.216327,4.216327 0 0 0 4.216698,4.215934 4.216327,4.216327 0 0 0 4.215913,-4.206663 h 7.41e-4 V 37.707274 h 0.0091 a 3.2403238,3.2403238 0 0 1 3.195295,-2.951915 3.2403238,3.2403238 0 0 1 3.180636,2.774115 v 2.36407 a 4.1049251,4.1049251 0 0 0 -0.0015,0.03825 4.1049251,4.1049251 0 0 0 0.0037,0.02802 V 44.0473 a 4.1049251,4.1049251 0 0 0 -0.0015,0.03736 4.1049251,4.1049251 0 0 0 4.104829,4.104434 4.1049251,4.1049251 0 0 0 4.104446,-4.095563 h 7.41e-4 V 30.1691 h -7.23e-4 v -4.152642 h -0.0015 A 4.1049251,4.1049251 0 0 0 96.806321,23.813603 41.23137,9.5764979 0 0 0 97.387603,23.61187 42.984711,10.544797 0 0 0 106.8844,17.031121 42.984711,10.544797 0 0 0 63.899702,6.4867638 Z m -0.0023,2.5596341 A 36.583352,7.3313796 0 0 1 80.000344,9.811536 37.893067,8.5660561 0.6683249 0 0 69.08525,9.3085512 37.893067,8.5660561 0.6683249 0 0 31.094975,17.431798 37.893067,8.5660561 0.6683249 0 0 33.425495,20.375992 36.583352,7.3313796 0 0 1 27.313389,16.37763 36.583352,7.3313796 0 0 1 63.896559,9.0462588 Z M 12.511654,25.40423 a 8.9504145,8.9504145 0 0 1 0.06132,0.005 v -9.93e-4 h 5.154368 v 4.627073 h -3.65122 v 7.56e-4 a 6.1472467,6.1472467 0 0 0 -0.04129,-0.0039 l -0.0015,-9.95e-4 a 6.1472467,6.1472467 0 0 0 -6.1426143,6.08782 h -0.005 v 8.215459 h 0.005 a 6.1472467,6.1472467 0 0 0 6.1433493,6.090113 6.1472467,6.1472467 0 0 0 0.07482,-0.005 h 3.618434 v 0.234145 a 46.429369,36.718456 0 0 0 -0.0035,0.03 46.429369,36.718456 0 0 0 0.0035,0.03 v 0.261914 h 0.02353 a 46.429369,36.718456 0 0 0 0.411564,4.112932 h -5.543174 a 8.9504145,8.9504145 0 0 1 -0.1084,0.0089 8.9504145,8.9504145 0 0 1 -8.9444448,-8.867686 h -0.007 v -11.94327 h 0.00888 a 9.118456,9.118456 0 0 1 0.1512087,-1.56525 8.9504145,8.9504145 0 0 1 8.7928591,-7.315177 z m 24.004869,3.025209 h 3.71e-4 a 0.53065724,0.53065724 0 0 1 0.53037,0.530726 0.53065724,0.53065724 0 0 1 -0.0044,0.0617 v 0.479059 a 0.53065724,0.53065724 0 0 1 0.0044,0.06686 0.53065724,0.53065724 0 0 1 -0.0044,0.062 0.53065724,0.53065724 0 0 0 0,3.87e-4 0.53065724,0.53065724 0 0 0 0,3.98e-4 0.53065724,0.53065724 0 0 0 0,3.77e-4 0.53065724,0.53065724 0 0 0 0,3.97e-4 0.53065724,0.53065724 0 0 1 -0.526517,0.467118 0.53065724,0.53065724 0 0 1 -0.526115,-0.467118 h -7.49e-4 v -0.01511 a 0.53065724,0.53065724 0 0 1 -0.0037,-0.04859 0.53065724,0.53065724 0 0 1 0.0037,-0.04828 V 29.00828 a 0.53065724,0.53065724 0 0 1 -0.0037,-0.04829 0.53065724,0.53065724 0 0 1 0.530366,-0.530744 z m 0,2.512938 h 3.71e-4 a 0.8146393,0.8146393 0 0 1 0.814643,0.814636 0.8146393,0.8146393 0 0 1 -0.0037,0.04989 v 3.653166 a 0.8146393,0.8146393 0 0 1 0.0037,0.07402 0.8146393,0.8146393 0 0 1 -0.0037,0.04978 0.8146393,0.8146393 0 0 0 0,3.89e-4 0.8146393,0.8146393 0 0 0 0,3.76e-4 0.8146393,0.8146393 0 0 0 0,3.98e-4 0.8146393,0.8146393 0 0 0 0,3.78e-4 0.8146393,0.8146393 0 0 0 0,3.98e-4 0.8146393,0.8146393 0 0 0 0,3.77e-4 0.8146393,0.8146393 0 0 0 0,3.97e-4 0.8146393,0.8146393 0 0 1 -0.811154,0.762177 0.8146393,0.8146393 0 0 1 -0.811174,-0.762177 h -3.88e-4 v -0.01392 a 0.8146393,0.8146393 0 0 1 -0.0023,-0.03854 0.8146393,0.8146393 0 0 1 0.0023,-0.03835 v -3.699837 a 0.8146393,0.8146393 0 0 1 0,-9.93e-4 0.8146393,0.8146393 0 0 1 -0.0023,-0.03706 0.8146393,0.8146393 0 0 1 0.814648,-0.814646 z m -21.673966,3.202652 -3.85e-4,3.77e-4 v 7.45e-4 a 3.6939611,3.6939611 0 0 1 0.02468,9.95e-4 h 2.257616 v 7.45e-4 h 0.602878 v 12.247027 h -0.602102 v 7.65e-4 h -2.237175 a 3.6939611,3.6939611 0 0 1 -0.04473,0.0031 3.6939611,3.6939611 0 0 1 -3.692105,-3.660468 h -0.0039 v -4.936472 h 0.0039 a 3.6939611,3.6939611 0 0 1 3.691332,-3.658571 z m 21.673966,2.907174 a 0.9874415,0.9874415 0 0 1 0.987427,0.987449 0.9874415,0.9874415 0 0 1 -0.0044,0.05941 v 0.984737 a 0.9874415,0.9874415 0 0 1 0.0044,0.09142 0.9874415,0.9874415 0 0 1 -0.987427,0.987429 0.9874415,0.9874415 0 0 1 -0.983217,-0.92882 h -0.0015 v -0.02087 a 0.9874415,0.9874415 0 0 1 -0.0023,-0.03795 0.9874415,0.9874415 0 0 1 0.0023,-0.03775 v -1.059939 a 0.9874415,0.9874415 0 0 1 -0.0023,-0.03775 0.9874415,0.9874415 0 0 1 0.987441,-0.987449 z M 78.682594,58.26834 a 4.1884721,4.1884721 0 0 0 -4.188152,4.188531 4.1884721,4.1884721 0 0 0 4.188152,4.188523 4.1884721,4.1884721 0 0 0 4.188514,-4.188523 4.1884721,4.1884721 0 0 0 -4.188514,-4.188531 z m -1.519351,1.994571 a 0.73138354,0.73138354 0 0 1 0.731312,0.731685 0.73138354,0.73138354 0 0 1 -0.731312,0.731327 0.73138354,0.73138354 0 0 1 -0.731335,-0.731327 0.73138354,0.73138354 0 0 1 0.731335,-0.731685 z m 24.062707,28.539741 a 3.8559531,3.8559531 0 0 0 -3.856411,3.855269 3.8559531,3.8559531 0 0 0 3.856411,3.856798 3.8559531,3.8559531 0 0 0 0.0466,-0.0031 v 0.0031 h 7.71634 a 3.8559531,3.8559531 0 0 0 0.004,0 3.8559531,3.8559531 0 0 0 3.85642,-3.856798 3.8559531,3.8559531 0 0 0 -3.85642,-3.855269 3.8559531,3.8559531 0 0 0 -0.004,0 h -7.71634 v 7.46e-4 a 3.8559531,3.8559531 0 0 0 -0.0466,-7.46e-4 z" /><g
     inkscape:groupmode="layer"
     id="layer6"
     inkscape:label="Bottom Text"
     style="display:inline;fill:#fff4e0;fill-opacity:1"><text
       xml:space="preserve"
       style="font-style:normal;font-variant:normal;font-weight:normal;font-stretch:normal;font-size:35.5512px;font-family:Stylish;-inkscape-font-specification:Stylish;fill:#fff4e0;fill-opacity:1;stroke:none;stroke-width:0.519624;stroke-linecap:round;stroke-opacity:1"
       x="263.51718"
       y="92.79158"
       id="text2"
       inkscape:label="Text - Studio"><tspan
         sodipodi:role="line"
         id="tspan2"
         style="font-size:35.5512px;fill:#fff4e0;fill-opacity:1;stroke:none;stroke-width:0.519624;stroke-opacity:1"
         x="263.51718"
         y="92.79158">STUDIO</tspan></text><rect
       style="fill:#fff4e0;fill-opacity:1;stroke:none;stroke-width:0.418285;stroke-linecap:round;stroke-linejoin:round;stroke-dasharray:none;paint-order:normal"
       id="rect2"
       width="110.16039"
       height="6.3636713"
       x="393.73352"
       y="78.512482"
       inkscape:label="Rect - Right"
       ry="0.29459196" /><rect
       style="fill:#fff4e0;fill-opacity:1;stroke:none;stroke-width:0.418285;stroke-linecap:round;stroke-linejoin:round;stroke-dasharray:none;paint-order:normal"
       id="rect2-4"
       width="110.16039"
       height="6.3636713"
       x="133.50696"
       y="78.51226"
       inkscape:label="Rect - Left"
       rx="0.29105258"
       ry="0.29105258" /></g><g
     inkscape:groupmode="layer"
     id="layer4"
     inkscape:label="Top Text"
     style="display:inline;fill:#fff4e0;fill-opacity:1"><text
       xml:space="preserve"
       style="font-style:normal;font-variant:normal;font-weight:normal;font-stretch:normal;font-size:53.3267px;font-family:Skranji;-inkscape-font-specification:Skranji;fill:#fff4e0;fill-opacity:1;stroke:none;stroke-width:0.519624;stroke-linecap:round"
       x="127.17429"
       y="61.445274"
       id="text1"
       inkscape:label="Text - Runneth Over"><tspan
         sodipodi:role="line"
         id="tspan1"
         style="font-size:53.3267px;fill:#fff4e0;fill-opacity:1;stroke:none;stroke-width:0.519624"
         x="127.17429"
         y="61.445274">RUNNETH OVER</tspan></text></g></svg>
