<?xml version="1.0" encoding="UTF-8" standalone="no"?>
<!-- Created with Inkscape (http://www.inkscape.org/) -->

<svg
   width="1940.5504"
   height="386.3616"
   viewBox="0 0 513.43727 102.22485"
   version="1.1"
   id="svg1"
   xml:space="preserve"
   inkscape:version="1.4 (86a8ad7, 2024-10-11)"
   sodipodi:docname="logo-vector-horizontal-light.svg"
   inkscape:export-filename="logo-vector-horizontal.png"
   inkscape:export-xdpi="96"
   inkscape:export-ydpi="96"
   xmlns:inkscape="http://www.inkscape.org/namespaces/inkscape"
   xmlns:sodipodi="http://sodipodi.sourceforge.net/DTD/sodipodi-0.dtd"
   xmlns="http://www.w3.org/2000/svg"
   xmlns:svg="http://www.w3.org/2000/svg"><sodipodi:namedview
     id="namedview1"
     pagecolor="#ffffff"
     bordercolor="#000000"
     borderopacity="0.25"
     inkscape:showpageshadow="2"
     inkscape:pageopacity="0.0"
     inkscape:pagecheckerboard="true"
     inkscape:deskcolor="#d1d1d1"
     inkscape:document-units="px"
     inkscape:zoom="0.93"
     inkscape:cx="933.87097"
     inkscape:cy="270.43011"
     inkscape:window-width="2560"
     inkscape:window-height="1494"
     inkscape:window-x="-11"
     inkscape:window-y="-11"
     inkscape:window-maximized="1"
     inkscape:current-layer="g5"
     showgrid="false"
     showguides="true"><inkscape:grid
       id="grid1"
       units="mm"
       originx="2.6439979"
       originy="2.4892631"
       spacingx="0.99999998"
       spacingy="1"
       empcolor="#0099e5"
       empopacity="0.30196078"
       color="#0099e5"
       opacity="0.14901961"
       empspacing="5"
       dotted="false"
       gridanglex="30"
       gridanglez="30"
       visible="false" /></sodipodi:namedview><defs
     id="defs1" /><g
     inkscape:groupmode="layer"
     id="layer7"
     inkscape:label="Center Line"
     style="display:none"
     sodipodi:insensitive="true"
     transform="translate(2.6439981,2.489263)"><path
       style="fill:#ff0000;stroke:#ff0000;stroke-width:0.375869px;stroke-linecap:butt;stroke-linejoin:miter;stroke-opacity:1"
       d="m 142.875,83.301228 c 0,98.923502 0,100.056202 0,100.056202"
       id="path16"
       inkscape:label="Red Center Line" /></g><g
     inkscape:groupmode="layer"
     id="layer5"
     inkscape:label="Bottom Line"
     style="display:none"
     transform="translate(2.6439981,2.489263)"><path
       style="display:inline;fill:none;stroke:#07ff00;stroke-width:1.26941;stroke-linecap:butt;stroke-linejoin:miter;stroke-dasharray:none;stroke-opacity:1"
       d="m 351.95048,277.15084 c -256.938142,0 -256.938142,0 -256.938142,0"
       id="path18" /></g><g
     inkscape:groupmode="layer"
     id="layer8"
     inkscape:label="Background"
     style="display:none"
     transform="translate(2.6439981,2.489263)"><rect
       style="display:inline;fill:#fff4e0;fill-opacity:1;stroke:none;stroke-width:0;stroke-linecap:round;stroke-linejoin:round;stroke-opacity:1"
       id="rect115"
       width="507.99997"
       height="285.75"
       x="-4.9999999e-06"
       y="-4.9999999e-06"
       inkscape:label="Full Background"
       sodipodi:insensitive="true" /><circle
       style="display:inline;fill:#00ff00;fill-opacity:1;stroke:#ff0000;stroke-width:0;stroke-linecap:round;stroke-linejoin:round;stroke-opacity:1"
       id="path115"
       cx="253.99998"
       cy="142.875"
       r="142.875"
       inkscape:label="Centered Circle"
       sodipodi:insensitive="true" /></g><g
     id="g6"
     inkscape:label="Dark Mode Border"
     transform="translate(2.6439981,2.489263)"
     style="display:none"><g
       inkscape:groupmode="layer"
       id="g2"
       inkscape:label="Cup Color"
       style="opacity:1;fill:#fff4e0;fill-opacity:1;stroke:none"><path
         id="path1"
         style="display:inline;opacity:1;fill:#fff4e0;fill-opacity:1;stroke:none;stroke-width:0.22688px;stroke-linecap:butt;stroke-linejoin:miter;stroke-opacity:1"
         d="M 63.672374,1.9918251 C 62.923807,2.0072262 62.229349,2.043887 61.597654,2.1039789 51.490657,3.0665393 33.602879,4.7509577 27.426388,7.237604 21.249896,9.7242305 18.522315,12.291238 17.39932,14.45701 c -1.123002,2.165783 -0.641741,4.892882 0.240616,6.096095 0.882357,1.203213 1.444149,3.208685 1.444149,3.208685 -0.80214,0 -5.935903,-0.320855 -8.101681,0.08027 -2.1657867,0.401054 -8.8239511,4.331536 -9.1448055,8.823534 -0.3208566,4.492017 -0.079873,17.487021 1.0431214,18.690225 1.1229993,1.203232 5.0534694,5.61488 8.8235371,5.695091 3.770061,0.08027 8.021412,-0.641797 8.663124,-0.08019 0.641711,0.561497 4.090839,9.064435 5.133622,10.50831 1.042788,1.443846 9.385423,10.42793 13.877393,12.272821 4.492006,1.844929 16.363546,5.775312 27.513293,5.454458 11.149783,-0.320854 27.59379,-8.101516 29.278254,-9.705803 1.684507,-1.604288 10.107177,-13.717064 11.149967,-17.246482 1.04278,-3.529407 1.20308,-35.855649 1.20308,-35.855649 0,0 3.20866,-3.208465 3.44932,-5.133626 0.24059,-1.925108 -3.77006,-7.5404854 -8.90376,-9.3051843 C 98.2557,6.3051493 74.900792,1.7604922 63.672374,1.991984 Z M 61.717746,8.2000255 A 35.093838,7.9813416 0 0 1 91.123621,11.828353 35.093838,7.9813416 0 0 0 68.009253,9.852461 35.093838,7.9813416 0 0 0 32.915404,17.833596 35.093838,7.9813416 0 0 0 38.668957,22.19487 35.093838,7.9813416 0 0 1 26.623887,16.181638 35.093838,7.9813416 0 0 1 61.717746,8.2000255 Z M 35.287456,27.852704 h 2.646797 v 13.074937 h -2.646797 z m -24.465465,5.69507 h 7.218975 v 13.396201 h -7.218975 z m 65.053644,26.150283 h 2.647244 v 2.486368 h -2.647244 z"
         inkscape:label="Cup Fill" /><path
         id="path2"
         style="opacity:1;fill:#fff4e0;fill-opacity:1;stroke:none;stroke-width:0;stroke-linecap:round;stroke-linejoin:round;stroke-opacity:1"
         d="M 62.941218,8.3604373 A 36.397328,8.0214483 0 0 0 26.543683,16.381921 36.397328,8.0214483 0 0 0 40.431707,22.667233 36.397328,8.0214483 0 0 1 32.020726,17.556659 36.397328,8.0214483 0 0 1 68.418266,9.5356216 36.397328,8.0214483 0 0 1 90.921996,11.254507 36.397328,8.0214483 0 0 0 62.941218,8.3604373 Z M 35.367665,27.993173 v 12.392953 h 2.345909 V 27.993173 Z m 41.784177,32.156432 a 0.85434806,0.85434806 0 0 0 -0.854349,0.85432 0.85434806,0.85434806 0 0 0 0.854349,0.85436 0.85434806,0.85434806 0 0 0 0.854357,-0.85436 0.85434806,0.85434806 0 0 0 -0.854357,-0.85432 z"
         inkscape:label="Highlights" /></g><path
       id="path3"
       style="display:inline;opacity:1;fill:#fff4e0;fill-opacity:1;stroke:none;stroke-width:0;stroke-linecap:round;stroke-linejoin:round"
       inkscape:label="Cup"
       d="m 59.660156,-2.4492188 c -12.253648,0.4482912 -24.663182,1.87940478 -36.175048,6.3186314 -4.377946,1.7915816 -8.810489,4.2263598 -11.421883,8.3181034 -1.22343,2.118652 -1.606991,4.75899 -0.838616,7.101546 -4.5540334,0.115952 -9.0906913,2.450261 -11.48711,6.38624 -2.008453,3.086278 -2.6182011,6.884541 -2.3032383,10.505939 0.069615,4.775336 -0.2485399,9.579299 0.3428537,14.330545 1.30596209,6.274185 7.4258867,11.16961 13.8528886,10.94221 1.650366,0.05829 3.301318,-0.01655 4.952028,0.003 1.477094,4.390736 3.969256,8.400123 6.960938,11.919922 -3.649964,0.03364 -7.342825,-0.255478 -10.955827,0.368649 -4.1252367,1.323717 -6.1501106,7.001775 -3.5168295,10.529789 1.1912615,1.783458 3.2363865,2.867602 5.3359375,3.138671 -1.689378,3.176554 -0.226354,7.744537 3.249172,8.987277 2.759393,1.045139 5.743771,0.35871 8.60825,0.549833 5.183633,8.77e-4 10.367461,-0.01358 15.550781,0.05469 1.022259,1.121212 2.259096,2.114934 3.787779,2.40007 2.618486,0.645273 5.32738,0.112804 7.986049,0.287488 13.39946,-0.01318 26.800878,0.05518 40.198828,-0.125058 1.152907,-0.150954 2.164741,-0.775385 3.105469,-1.419921 1.765387,1.490705 4.179122,1.626861 6.383532,1.571104 2.21681,-0.166661 4.44714,0.147218 6.65358,-0.166808 2.10313,-0.24602 4.08413,-1.450488 5.0977,-3.335287 1.62041,-2.780449 1.21223,-6.781825 -1.41522,-8.815083 -0.16977,-0.301781 -1.17187,-0.587178 -0.60631,-0.779317 3.56054,-1.853001 4.97293,-7.061646 2.44095,-10.295548 -1.60767,-2.199407 -4.42258,-3.205568 -7.08386,-3.027123 -1.16757,0.05108 -2.33506,0.100739 -3.50357,0.05509 5.69422,-6.594956 9.15576,-15.250926 8.88431,-24.017969 -0.005,-8.447801 -0.0282,-16.895739 0.0415,-25.343359 1.27602,-1.406877 2.58294,-2.907063 3.07348,-4.803324 0.89207,-2.915145 0.10938,-6.223226 -1.92542,-8.481455 C 112.08698,7.1671864 107.81992,5.2305559 103.71717,3.5396458 96.246419,0.63856449 88.278208,-0.67389181 80.357919,-1.6397017 73.488545,-2.3952488 66.566484,-2.5837542 59.660156,-2.4492188 Z M 103.51758,31.066406 c 0.008,7.048015 0.0962,14.105031 -0.24977,21.145133 -0.94555,7.558644 -5.450281,14.337169 -11.376789,18.974432 C 83.759014,77.593133 73.205592,80.57106 62.965743,80.339248 56.176049,80.215017 49.242082,78.594087 43.181641,75.582031 35.796208,71.922307 29.257496,65.843235 26.289741,58.023584 25.37403,55.580211 24.841287,53.034753 24.692137,50.497788 24.454656,44.072532 24.65906,37.640891 24.582917,31.212902 c -0.0066,-2.135431 -0.0081,-4.270973 0.0206,-6.406261 2.192227,1.092887 4.573067,1.713469 6.894531,2.46289 -0.202668,1.752237 0.0034,3.531369 -0.06746,5.294529 -0.0019,5.201474 -0.144122,10.41447 0.209017,15.606478 0.848238,5.020507 6.801577,8.337853 11.525014,6.456686 3.845016,-1.394308 6.227634,-5.639461 5.809132,-9.647474 0.11269,-1.773627 -0.424166,-3.699378 0.390699,-5.3562 1.0621,-1.182138 3.617294,-0.765165 3.721491,1.005356 0.219465,1.839895 -0.08169,3.694104 0.05954,5.539838 0.05043,4.937446 -0.235749,9.904337 0.364244,14.816128 1.338372,5.052059 7.716813,8.088664 12.41838,5.668376 3.643338,-1.62724 5.781309,-5.801517 5.308859,-9.714183 0.04791,-4.850028 -0.05572,-9.700947 0.05796,-14.550393 0.06066,3.611115 -0.253283,7.260932 0.34375,10.839844 0.376528,1.407243 1.222405,2.677798 2.355469,3.589843 -3.281844,2.596284 -3.564218,8.176415 -0.375759,10.964086 2.871009,2.794645 8.160214,2.688892 10.657526,-0.55629 2.57744,-2.927046 2.284395,-8.045495 -0.920439,-10.405843 2.263235,-1.758956 2.970862,-4.829626 2.727618,-7.567184 0.04019,-3.151325 -0.11941,-6.304721 0.03605,-9.4543 -0.01727,2.856597 -0.348292,6.001999 1.327852,8.503107 2.389656,3.452535 8.037979,4.136028 10.969219,1.006059 2.01741,-1.923333 2.52599,-4.901764 2.22484,-7.56854 0.0109,-5.295964 0.0351,-10.592064 -0.018,-15.887892 0.98429,-0.336877 1.95475,-0.719487 2.88281,-1.191406 0.004,2.135417 0.008,4.270834 0.0117,6.40625 z m -88.953127,6.486328 c -0.03734,1.827961 0.02867,3.657112 -0.03516,5.484375 -0.366299,-0.646687 -0.11642,-1.458342 -0.213584,-2.178514 0.02697,-1.094332 -0.0663,-2.239071 0.162803,-3.298048 0.01025,0.003 0.146085,-0.216196 0.08594,-0.0078 z m 62.636719,22.986328 c 0.675542,0.141036 -0.115952,1.249807 -0.335358,0.507164 -0.03602,-0.19097 0.07981,-0.54811 0.335358,-0.507164 z" /><g
       inkscape:groupmode="layer"
       id="g4"
       inkscape:label="Bottom Text"
       style="fill:#fff4e0;fill-opacity:1"><path
         id="text3"
         style="font-style:normal;font-variant:normal;font-weight:normal;font-stretch:normal;font-size:35.5512px;font-family:Stylish;-inkscape-font-specification:Stylish;fill:#fff4e0;fill-opacity:1;stroke:none;stroke-width:0.519624;stroke-linecap:round;stroke-opacity:1"
         inkscape:label="Text - Studio"
         d="m 362.03906,67.929688 c -3.69333,0.144007 -7.13021,2.325371 -9.14062,5.376953 0.32968,-1.766607 -0.66441,-3.574275 -2.22871,-4.398907 -1.8914,-1.008719 -4.16991,-0.862358 -6.19643,-0.405039 -1.94354,0.464519 -3.85594,2.12232 -3.73379,4.265539 0.0237,0.438012 0.2068,0.974607 -0.18274,0.320065 -2.07834,-2.995815 -5.6603,-4.627808 -9.23046,-4.888828 -2.06428,-0.14437 -4.13708,0.01623 -6.20326,0.05443 -1.70414,0.155829 -3.658,0.48288 -4.79883,1.886719 -1.93693,-2.220932 -5.82565,-2.310368 -7.74219,-0.01563 -0.94713,1.085642 -1.09838,2.599718 -0.87491,3.969815 0.21744,3.864044 0.23002,7.830243 -0.30087,11.694247 0.0475,1.101642 -1.19646,1.97208 -2.19269,1.464513 -0.61519,-0.529767 -0.31267,-1.489954 -0.53973,-2.202794 -0.43632,-4.029897 -0.16911,-8.086278 -0.0955,-12.1251 -0.0756,-1.936316 -1.5505,-3.62813 -3.41028,-4.097195 -1.63505,-0.496856 -3.46262,-0.222588 -4.92585,0.642217 -1.3196,-1.245273 -3.2275,-1.474728 -4.96094,-1.341229 -4.06333,0.03304 -8.15366,-0.158967 -12.19218,0.372526 -1.16986,0.155046 -2.40604,0.629596 -3.1418,1.540969 -2.10113,-1.993898 -5.17442,-2.191626 -7.91714,-2.084012 -3.89933,0.03374 -7.95163,2.422206 -9.16476,6.254459 -1.28212,4.250503 1.18033,9.15023 5.25554,10.82763 1.47284,0.83708 3.06344,1.313714 4.39667,2.296845 -1.55452,0.06487 -2.705,-1.088886 -3.8943,-1.904467 -1.91681,-1.52401 -4.93891,-0.481849 -5.93814,1.63019 -1.09269,2.391972 -0.19786,5.384896 1.82285,7.003602 1.42371,1.263285 3.38196,1.513063 5.17661,1.878265 3.57022,0.607938 7.59853,-0.02233 10.27255,-2.631303 2.20336,-2.07509 3.16551,-5.334126 2.4155,-8.27023 -0.62884,-2.737147 -2.5765,-5.139677 -5.12656,-6.317386 1.27435,0.213628 2.56514,-0.394979 3.41797,-1.322265 1.3726,0.961411 3.18274,0.645485 4.66211,0.128906 0.0258,3.614074 0.21768,7.264483 -0.32668,10.84733 -0.78358,1.845434 -1.04272,4.306434 0.50912,5.839013 2.24041,2.297484 6.27879,2.356561 8.70037,0.32147 1.51744,-1.467252 1.84571,-3.903688 0.94309,-5.779661 -0.47083,-2.454054 0.0107,-4.955646 -0.11071,-7.431175 0.0243,-1.334891 0.0679,-2.679874 0.14809,-3.990336 1.1193,0.18721 2.28817,0.493989 3.43555,0.246094 0.41959,4.161335 -0.40755,8.525968 1.18861,12.512592 1.10537,2.791538 3.68559,4.848182 6.60117,5.47749 2.98038,0.675539 6.21637,0.448699 9.01704,-0.803159 1.98799,-0.898223 3.63922,-2.525073 4.52326,-4.522861 -0.79927,1.8627 0.0994,4.27653 2.03515,4.998047 2.16611,0.942895 4.58743,0.594334 6.88124,0.721159 3.6437,0.0094 7.51498,-0.907543 10.15429,-3.572747 0.78203,-0.751839 1.46229,-1.61027 2.01916,-2.54099 -0.5378,1.500281 -0.34837,3.347905 0.90845,4.440786 1.75783,1.697423 4.42505,1.791778 6.71464,1.526091 2.0225,-0.286543 4.05725,-1.781037 4.2211,-3.943016 -0.0352,-0.679386 0.0613,-0.546582 0.38516,-0.05623 2.1848,2.982051 5.88048,4.735888 9.57026,4.592918 4.68041,-0.06669 9.33002,-2.904974 11.12597,-7.298266 1.82689,-4.632777 1.8423,-10.02536 -0.19164,-14.592537 -1.96332,-3.993608 -6.29477,-6.81577 -10.79446,-6.599022 -0.3151,-0.0059 -0.63022,0.0027 -0.94534,0.0035 z m 1.05469,8.582031 c 1.50223,0.451338 1.88409,2.217721 2.01589,3.585112 0.34558,2.442139 0.16879,5.136207 -1.22626,7.238501 -0.86206,0.836108 -2.44232,0.30576 -2.79157,-0.800893 -1.16429,-2.081426 -0.87327,-4.5866 -0.67282,-6.838081 0.22368,-1.327773 0.85311,-3.028785 2.38403,-3.220482 0.0986,-0.01598 0.19358,0.02685 0.29073,0.03584 z m -32.79687,0.125 c 1.70931,0.423303 2.62014,2.279733 2.54486,3.935475 0.18145,2.014604 0.23829,4.331259 -1.13412,5.970954 -0.4761,0.44826 -1.09756,0.764625 -1.7545,0.816227 0.0472,-3.590918 10e-4,-7.182848 0.043,-10.773437 0.10026,0.01693 0.20052,0.03385 0.30079,0.05078 z" /><path
         id="rect3"
         style="fill:#fff4e0;fill-opacity:1;stroke:none;stroke-width:0.418285;stroke-linecap:round;stroke-linejoin:round;stroke-dasharray:none;paint-order:normal"
         inkscape:label="Rect - Right"
         d="m 502.36328,75.302734 c -36.27779,0.079 -72.55697,-0.0069 -108.83398,0.09375 -2.22189,0.305563 -3.39386,2.853928 -2.96485,4.892578 0.10117,2.159397 -0.4206,4.554734 0.83025,6.476958 1.28892,1.52721 3.46756,1.329228 5.25999,1.278902 35.8356,-0.01097 71.67287,0.03177 107.50742,-0.05664 2.17482,-0.345968 3.32038,-2.836653 2.9043,-4.849609 -0.10415,-2.246829 0.46642,-4.784914 -0.99446,-6.726585 -0.95994,-0.958643 -2.41312,-1.14725 -3.70867,-1.109354 z" /><path
         id="rect4"
         style="fill:#fff4e0;fill-opacity:1;stroke:none;stroke-width:0.418285;stroke-linecap:round;stroke-linejoin:round;stroke-dasharray:none;paint-order:normal"
         inkscape:label="Rect - Left"
         d="m 242.06836,75.320312 c -36.1204,0.0171 -72.24114,0.0365 -108.36133,0.01367 -1.92104,0.112783 -3.55512,1.910236 -3.36743,3.850361 -0.0426,1.763654 0.012,3.531778 0.0212,5.293932 0.10537,1.602764 1.17736,3.251459 2.8758,3.448173 1.77975,0.341986 3.59696,-0.01707 5.39269,0.116541 35.10058,-0.0092 70.2028,0.03381 105.30234,-0.05471 2.21494,-0.34767 3.32843,-2.897199 2.9082,-4.929687 -0.0956,-2.230351 0.45287,-4.753646 -1.00586,-6.673828 -0.98243,-0.967338 -2.45277,-1.133867 -3.76562,-1.064454 z" /></g><g
       inkscape:groupmode="layer"
       id="g5"
       inkscape:label="Top Text"
       style="display:inline;fill:#fff4e0;fill-opacity:1"><path
         id="text4"
         style="font-style:normal;font-variant:normal;font-weight:normal;font-stretch:normal;font-size:53.3267px;font-family:Skranji;-inkscape-font-specification:Skranji;fill:#fff4e0;fill-opacity:1;stroke:none;stroke-width:0.519624;stroke-linecap:round"
         inkscape:label="Text - Runneth Over"
         d="m 395.56641,18.662109 c -2.17683,0.333909 -4.43148,0.498047 -6.45368,1.437636 -2.36109,0.538926 -4.60671,1.659146 -6.31191,3.397387 -2.73115,2.255033 -5.44863,4.759126 -6.8451,8.092498 -1.32628,2.467436 -2.13511,5.199597 -2.29901,7.998636 -0.51485,5.825065 1.21651,11.766909 4.63412,16.495641 1.48619,2.274249 3.5179,4.110266 5.70379,5.694722 2.27005,1.754181 4.88328,3.168735 7.76124,3.553402 4.09547,0.68505 8.28312,-0.06432 12.22766,-1.196673 2.60816,-0.786781 4.84366,-2.413055 6.83843,-4.221753 2.18311,-1.863018 3.88591,-4.197355 5.33383,-6.657496 1.33536,-2.092111 2.23779,-4.455858 2.49251,-6.932267 0.26622,-2.028004 0.25384,-4.086155 0.0451,-6.118764 1.29275,3.44672 2.43678,6.94474 3.46906,10.477353 1.20013,3.812967 2.3024,7.663528 3.70086,11.407413 0.83043,1.769592 2.65699,3.11593 4.66252,3.013628 1.80167,0.09354 3.62246,0.08002 5.41561,-0.107378 2.14336,-0.380373 4.09646,-2.047965 4.44711,-4.253771 1.06849,-3.445787 2.18334,-6.882234 2.91415,-10.420097 1.03977,-4.72868 1.88052,-9.517356 3.49386,-14.074013 0.11129,-0.236048 0.40889,-1.636875 0.36112,-0.892013 -0.0206,1.911642 0.12611,3.822321 -0.0261,5.733775 -0.31505,5.62736 0.43957,11.279742 -0.24997,16.893059 -0.26749,1.399488 -0.3779,2.945075 0.41538,4.207067 1.13131,1.939062 3.48177,2.792121 5.64246,2.686852 2.19635,0.09566 4.45514,0.344692 6.68349,0.142165 2.46614,-0.09635 4.90105,-0.350054 7.37247,-0.04615 2.05008,0.124233 4.19373,0.428939 6.18428,-0.221016 1.52358,-0.646367 2.32922,-2.250687 2.6181,-3.798345 0.1776,-0.560817 0.39158,-1.109015 0.59479,-1.660639 -0.0444,1.444364 -0.0906,3.126821 1.09762,4.167638 1.17853,1.171143 2.9141,1.433204 4.504,1.411935 2.36707,0.184833 4.76324,0.02187 7.10045,-0.359569 1.62769,-0.329018 2.95721,-1.609108 3.38108,-3.209007 0.61541,-2.215758 -0.36316,-4.560772 -0.49917,-6.692638 1.66937,2.755276 2.81123,5.784635 4.27344,8.642578 1.19689,1.829803 3.63439,2.619584 5.69949,1.953605 2.2743,-0.621649 4.16512,-2.110959 6.24775,-3.15483 1.47511,-0.806206 2.67173,-2.317499 2.59234,-4.067409 0.004,-2.118842 -1.53153,-3.793626 -3.03294,-5.100929 -1.69243,-1.630707 -2.80023,-3.736908 -4.27422,-5.550359 -0.68704,-0.4741 0.0478,-0.756583 0.44491,-1.096116 1.64058,-1.286142 3.23059,-2.635395 4.83829,-3.962477 0.58513,-1.621239 1.69601,-3.17668 1.47385,-4.982564 0.2384,-2.610998 -0.99988,-5.054722 -2.42033,-7.154141 -1.48038,-2.333897 -2.79846,-4.77258 -4.33714,-7.067073 -1.10814,-1.574981 -2.74283,-2.73696 -4.59655,-3.256722 -2.19015,-0.744905 -4.54962,-0.590505 -6.79435,-0.22773 -2.57999,0.14585 -5.10759,-0.166523 -7.67618,-0.352679 -0.99283,-0.150853 -1.97133,0.03175 -2.97602,0.122253 -2.31155,0.326523 -4.00926,2.509157 -4.23853,4.760056 -0.19824,1.492483 0.11431,2.98552 0.0899,4.483076 0.15502,2.16561 0.18091,4.336537 0.0414,6.502373 -0.11843,5.678652 0.35637,11.361163 0.059,17.036432 -0.0181,0.759169 -0.10005,0.615797 -0.32518,0.03372 -0.49427,-1.116137 -1.64977,-1.750244 -2.83374,-1.817448 -0.71436,0.0352 0.11608,-0.420243 0.24096,-0.747517 0.85321,-1.145535 0.61606,-2.636826 1.00191,-3.941994 0.51545,-2.563473 1.24331,-5.301591 0.37283,-7.867249 -0.84687,-1.765923 -3.0308,-2.134047 -4.79621,-2.121743 -2.89982,-0.04411 -5.79984,0.0383 -8.69963,-0.0085 0.12263,-0.41062 -0.28439,-1.315013 0.1492,-1.403598 2.10287,0.09111 4.24386,-0.05212 6.29032,0.526415 1.99693,0.479201 4.38177,0.822174 6.11908,-0.544692 1.77492,-1.554002 1.87489,-4.197262 1.40876,-6.349438 -0.44375,-2.065873 -1.12307,-4.08416 -1.90095,-6.045094 -0.72967,-1.572935 -2.42493,-2.906093 -4.2362,-2.479388 -1.32848,0.236583 -2.64566,0.675611 -4.01138,0.489008 -4.32757,-0.140229 -8.6558,-0.02683 -12.98289,0.03335 -1.40624,-0.168755 -2.88541,-0.06453 -4.12695,0.681641 -0.3778,0.486924 -0.6777,0.05674 -1.04493,-0.160156 -2.05806,-1.153354 -4.50564,-0.622272 -6.74148,-0.984386 -1.51666,-0.105788 -3.15948,-0.569468 -4.5593,0.267589 -1.67727,0.878212 -2.71174,2.747295 -2.66314,4.625421 -0.43735,2.954938 -1.14939,5.858357 -1.67084,8.796454 -0.76889,-2.737638 -1.63013,-5.454295 -2.10313,-8.263531 -0.37188,-1.432815 -0.65281,-3.044518 -1.74258,-4.127704 -1.07794,-1.031931 -2.63302,-1.169455 -4.03535,-1.311707 -1.3201,-0.354818 -2.66807,-0.01415 -3.98365,0.126231 -1.95086,0.05171 -4.23286,-0.119744 -5.73974,1.364257 -1.51052,1.640458 -1.26078,4.178578 -0.31389,6.03863 0.29546,0.752725 0.46089,1.546813 0.65271,2.330074 -1.44543,-2.058509 -3.14498,-3.975438 -5.13414,-5.519267 -2.07039,-1.517551 -4.42764,-2.552169 -6.76165,-3.584859 -2.45553,-0.84429 -5.08249,-1.287855 -7.65303,-1.511109 z m -61.47461,0.371094 c -3.09631,0.284044 -6.38152,0.331987 -9.16797,1.878906 -1.00251,-1.257222 -2.72743,-1.582385 -4.24735,-1.363215 -2.7662,0.143012 -5.5042,0.374747 -8.28188,0.240072 -4.33291,-0.04502 -8.66955,-0.134318 -12.99671,-0.302675 -1.65628,-0.0362 -3.34027,0.876013 -3.95648,2.460975 -0.24045,0.54463 -0.35213,1.18926 -0.4375,1.740234 -0.56136,-1.730054 -1.47629,-3.701842 -3.34375,-4.296875 -1.47255,-0.374842 -2.88727,0.455618 -4.35944,0.468099 -1.85956,0.09341 -3.72266,-0.114778 -5.58618,-0.0728 -3.18162,-0.05659 -6.36599,0.199435 -9.54474,0.04448 -2.46767,-0.2546 -5.28649,1.495982 -5.42386,4.128886 -0.0934,1.924942 0.44526,3.811006 0.43844,5.735528 0.1259,2.749473 -0.29508,5.492165 -0.11797,8.240335 -0.0109,2.978345 -0.26211,5.953432 -0.11931,8.933291 0.0671,3.268807 0.24631,6.550962 -0.0819,9.811241 -1.0487,-0.576593 -2.51526,-1.224847 -3.58789,-0.369141 -0.38984,0.324185 -0.3812,0.943068 -0.88476,1.130859 -0.73439,0.606428 -0.43867,1.842551 0.40987,2.185889 1.13169,0.977423 2.59861,1.311234 3.93016,1.902487 0.4433,0.414355 0.6247,1.116664 1.11895,1.538577 1.34778,1.43296 3.393,1.954908 5.30599,1.821215 2.04034,0.09828 4.17674,0.340338 6.25598,0.113468 2.70005,-0.09738 5.40628,-0.298389 8.10209,-0.0089 2.15082,0.167602 4.6077,0.538611 6.47266,-0.820313 1.52237,-1.29079 1.56559,-3.452362 2.36864,-5.15545 0.86149,-2.143323 1.646,-4.664804 0.56926,-6.878904 -0.5919,-1.167753 -1.91986,-1.814211 -3.16056,-1.854318 0.94271,-0.788791 1.23795,-2.031624 1.30079,-3.203125 0.49086,-2.89552 1.5977,-5.993627 0.72992,-8.974633 -0.75873,-1.870221 -2.97057,-2.586164 -4.84394,-2.418482 -2.90752,-0.07538 -5.81599,0.02287 -8.72387,-0.01704 0.12029,-0.408411 -0.28602,-1.316011 0.14918,-1.400436 2.31521,0.04595 4.61194,-0.001 6.865,0.646036 1.81964,0.402866 3.95257,0.574257 5.51902,-0.626459 0.27747,0.988837 0.53485,1.983148 0.80273,2.974609 0.88927,-0.404523 1.52261,-1.20175 2.39619,-1.610032 1.49251,0.0042 2.96356,-0.421973 4.4521,-0.570169 0.62785,-0.209117 0.21639,0.804038 0.33188,1.188393 -0.0647,4.310356 -0.31153,8.618835 -0.19362,12.93046 -0.004,3.645093 -0.48346,7.251256 -0.74207,10.893744 -0.0255,2.007297 1.13188,4.155293 3.17349,4.691041 2.09284,0.655507 4.29705,0.112102 6.4375,0.13086 1.71021,-0.123733 3.50437,0.168244 5.14881,-0.411291 1.6665,-0.695297 2.77257,-2.608272 2.29475,-4.394995 -0.37376,-3.286217 -0.67664,-6.550873 -0.65854,-9.857543 -0.0497,-4.55589 -0.4285,-9.101783 -0.38351,-13.65879 -0.008,-0.675012 -0.0151,-1.350025 -0.0226,-2.025037 1.79508,0.309009 4.07413,0.7597 5.62695,-0.619141 0.33303,-0.322499 0.0507,0.724069 0.1404,0.986704 0.0683,1.456949 0.2905,2.906949 0.19455,4.372136 -0.11357,2.918336 -0.31667,5.835253 -0.20761,8.757546 -0.0136,3.428172 -0.42431,6.8373 -0.51683,10.263138 -0.0676,1.588137 -0.50014,3.36826 0.37387,4.856804 0.78378,1.599655 2.6279,2.431545 4.35962,2.233025 3.15654,-0.169689 6.50194,0.37787 9.47436,-0.979119 2.09702,-1.338815 2.59649,-4.104273 2.23242,-6.404297 -0.27326,-2.69834 -0.39834,-5.375766 -0.35742,-8.095703 0.85833,0.03995 1.71827,0.011 2.57617,-0.02734 0.27709,3.546104 0.17286,7.213584 -0.041,10.767578 0.0359,1.684773 1.13152,3.525129 2.85742,3.816406 3.33733,0.976952 6.8528,-0.07028 10.2238,0.663848 0.56921,0.122718 1.33708,0.306466 1.95198,-0.02518 0.0819,-0.635964 -0.28351,-1.30703 -0.0801,-1.908203 0.64745,-0.572486 0.78449,-1.570522 0.86938,-2.404602 0.0804,-2.019977 -0.69374,-3.94872 -0.75136,-5.961865 -0.18132,-1.936451 -0.45192,-3.870393 -0.45982,-5.801502 0.36848,-0.780114 1.04706,-1.397623 1.23987,-2.272191 0.69625,-2.08446 0.79833,-4.292815 1.13529,-6.446769 0.18495,-1.860627 -0.57219,-3.93544 -2.33414,-4.788852 0.28666,-3.56633 0.26281,-7.135903 0.71034,-10.678116 0.19316,-1.962864 -0.97532,-4.002576 -2.87577,-4.641072 -2.15106,-0.718105 -4.47513,-0.199787 -6.66269,-0.186672 -1.41489,0.08498 -2.91205,-0.273692 -4.2249,0.437861 -1.55686,0.661499 -2.74551,2.298351 -2.48045,4.035872 0.0917,3.112525 0.77132,6.128453 0.68643,9.212868 -0.10762,0.453682 0.28243,1.409452 -0.16937,1.539962 -0.79079,0.0024 -1.58141,0.0348 -2.37226,0.02734 0.0317,-1.662744 0.0866,-3.34038 0.18892,-4.991896 0.31063,-0.918406 0.33954,-1.972993 -0.15946,-2.818372 0.0589,-1.41182 0.69867,-2.77941 0.49593,-4.217075 -0.10809,-1.724866 -1.24535,-3.335513 -2.91211,-3.875 -0.77766,-0.287934 -1.61332,-0.391361 -2.43945,-0.367188 z m -171.38477,0.101563 c -2.75983,0.356999 -4.47499,3.497226 -3.80664,6.08789 0.18898,2.353761 0.40467,4.705462 0.57617,7.060547 -1.80902,-2.983655 -3.61328,-5.977745 -5.44605,-8.948098 -1.15854,-1.747353 -2.9415,-3.046193 -4.97255,-3.576734 -2.16157,-0.695671 -4.47345,-0.510441 -6.67797,-0.16668 -2.86792,0.139289 -5.67161,-0.242486 -8.53348,-0.416245 -1.42597,0.09536 -2.98264,0.09331 -4.13753,1.074554 -1.77486,1.298654 -2.41094,3.619425 -2.1875,5.728516 0.1382,2.802575 0.34454,5.623748 0.18807,8.483452 -0.14499,4.68678 0.16403,9.37209 0.12908,14.059509 0.0506,1.902508 -0.0141,3.806655 -0.41181,5.673638 -0.40855,2.529399 -0.96919,5.127674 -0.52448,7.687697 0.57397,2.020675 2.80944,2.992287 4.76657,2.967417 2.86167,0.164494 5.80015,0.17633 8.58304,-0.572885 1.93032,-0.774297 2.97977,-2.945372 2.75806,-4.958052 -0.0766,-1.592141 -0.56014,-3.126639 -0.69556,-4.71187 1.40448,2.220908 2.38402,4.592908 3.44503,7.000768 0.66219,1.528026 1.66662,3.11447 3.38114,3.563685 1.98511,0.622428 4.11834,-0.01733 5.80757,-1.117638 1.76103,-0.99567 3.66295,-1.844222 5.16704,-3.216346 0.30159,-0.36045 0.54553,-0.771979 0.70899,-1.212891 1.68813,2.105194 4.35137,3.068456 6.84758,3.840268 2.28722,0.668972 4.6057,1.28404 6.95553,1.671753 1.9606,0.117395 3.8035,-0.699706 5.57579,-1.428037 0.87812,1.622016 2.89077,2.517156 4.67901,2.026647 2.39507,-0.301597 4.79724,-0.809642 7.02998,-1.735631 0.80307,-0.456159 1.47053,-1.173149 1.81445,-2.035156 0.8093,2.067075 3.18825,2.932215 5.26325,2.848787 2.32914,-0.08303 4.65783,0.05459 6.98607,0.04228 1.33442,-0.02557 2.89555,-0.216994 3.66832,-1.461581 0.98958,-1.374793 0.82609,-3.172817 0.43602,-4.725433 -0.50274,-2.488876 -0.82067,-5.053177 -0.73647,-7.610307 1.46937,2.610332 3.21989,5.050449 4.56142,7.734347 1.13052,1.901121 1.94876,4.167343 3.84874,5.459012 1.21202,0.884229 2.81983,0.802328 4.15274,0.255685 2.06477,-0.783781 4.1863,-1.547989 5.91407,-2.973204 1.11756,-0.881379 2.17874,-1.985704 2.46053,-3.432872 1.25765,0.135632 2.76378,0.0034 3.54687,-1.125 0.88233,-0.610098 0.57377,-2.252873 -0.57617,-2.279296 -1.00998,-0.172133 -2.12604,0.159305 -2.79101,0.958984 -0.12951,-2.403461 -0.4469,-4.795517 -0.43825,-7.207288 -0.14768,-6.275346 0.21039,-12.523041 0.79567,-18.761462 0.56549,0.808528 1.47882,1.687728 2.55273,1.279297 1.11737,-0.407289 1.15189,-1.831348 1.05079,-2.820313 0.43925,-0.378559 0.42231,-1.106084 0.0371,-1.517578 1.51712,-1.44099 3.12314,-2.78566 4.66407,-4.203125 1.00817,0.280123 1.88981,0.970637 2.92187,1.13086 1.23836,-0.07617 2.83652,-0.792601 2.86133,-2.212891 -0.0986,-1.288226 -1.53551,-1.858735 -2.64486,-1.995821 -1.51551,0.157934 -2.74741,1.220261 -4.19303,1.634493 -0.61441,0.300505 -0.289,1.131228 0.31055,1.207031 1.00498,0.245543 -0.51814,0.08241 -0.89011,0.105292 -1.38936,0.05977 -2.80789,-0.280867 -4.17628,0.02532 -1.21048,0.271511 -1.93595,1.38122 -2.27537,2.498178 -0.15827,0.480667 -0.22253,0.851148 -0.25267,0.06787 -0.15622,-2.194475 -1.60169,-4.551124 -3.91729,-4.897827 -2.58474,-0.339941 -5.20517,-0.256921 -7.80129,-0.20848 -2.51519,0.337632 -4.83034,2.665256 -4.52556,5.306475 0.048,2.455533 0.35509,4.842801 0.25654,7.288724 -1.12819,-2.702138 -2.33914,-5.367306 -3.51181,-8.050234 -0.98884,-2.01837 -2.36915,-4.21932 -4.6697,-4.852953 -1.75877,-0.423327 -3.49878,0.408641 -5.12243,0.985307 -1.57228,0.724265 -3.266,1.119889 -4.85738,1.840333 -1.319,0.576925 -2.22362,1.796077 -2.61071,3.157789 -0.54088,1.398574 -0.37612,2.9053 -0.32163,4.362326 0.05,5.607156 0.15165,11.213939 0.0792,16.821494 -0.0163,3.055626 0.18269,6.121258 -0.23441,9.161305 -0.0435,-0.214357 -0.0867,-1.056516 -0.14811,-1.50255 -0.40622,-4.790786 -0.1809,-9.614224 -0.61993,-14.404715 -0.29206,-4.217807 0.0782,-8.50576 0.45351,-12.749037 0.12515,-1.793126 0.33376,-3.609168 0.20336,-5.398268 -0.41722,-1.510515 -2.20266,-1.88705 -3.56613,-1.844915 -1.9055,-0.0048 -3.81538,0.06918 -5.70971,-0.177886 -1.93305,-0.153204 -4.24977,-0.131464 -5.58249,1.520381 -1.62473,1.86628 -1.49388,4.507622 -1.31511,6.814996 0.13695,4.059412 0.50768,8.104516 0.90066,12.144752 0.2496,3.362633 0.37262,6.709592 0.55664,10.078125 -1.15236,0.123261 -2.32198,0.06282 -3.45898,-0.158203 0.0106,-4.852557 -0.50398,-9.702882 -0.16238,-14.554563 0.15966,-4.130409 0.68656,-8.282634 0.65341,-12.439074 -0.20602,-1.928027 -1.90077,-3.637381 -3.88915,-3.600667 -1.9994,-0.187449 -4.01985,0.06413 -6.01013,-0.265699 -1.04582,-0.09152 -2.09586,-0.174911 -3.14644,-0.128279 z m 94.08399,0.414062 c -0.88857,0.06058 -1.55281,0.886362 -1.69727,1.722656 -0.11693,-0.640283 -0.68459,-0.439655 -1.17187,-0.423828 -1.24451,0.136734 -2.14471,1.268349 -2.60294,2.33046 -0.0463,0.959091 -0.27065,2.263745 0.78848,2.780868 -4e-5,0.144157 -0.75665,0.221823 -1.0039,0.462891 -0.60452,0.384283 -0.83767,1.412274 -0.10743,1.789063 1.32436,1.04829 3.49763,1.273138 4.78321,0.04687 0.3613,-0.854655 -0.32027,-1.649834 -1.08985,-1.939453 -0.69532,-0.249529 -0.38139,-0.423178 0.17001,-0.567964 0.68049,-0.13517 0.92693,-0.401052 0.47452,-0.994536 0.4761,0.786331 1.67513,0.350206 1.97266,-0.402343 0.74449,-1.095302 1.45921,-2.577067 0.73796,-3.864433 -0.26153,-0.475593 -0.65863,-0.951241 -1.25358,-0.940255 z m 5.5,0.445313 c -1.53217,0.0129 -2.04809,2.33218 -0.76368,3.082031 0.36784,0.266217 0.66077,0.564653 0.66407,1.029297 0.38799,0.932367 1.59158,0.841276 2.37338,0.520226 1.04953,-0.234996 2.28105,-1.186894 1.8688,-2.39132 -0.36527,-0.802853 -1.07784,-1.453798 -1.83586,-1.884848 -0.7147,-0.34068 -1.53435,-0.318745 -2.30671,-0.355386 z m -29.2793,7.177734 c 0.51973,0.792119 -0.74882,-0.124917 0,0 z m -89.61328,4.71875 c 0.95488,1.10649 1.68372,2.839008 0.72193,4.172402 -0.42319,0.673766 -0.94173,1.284259 -1.4524,1.892051 0.21193,-2.045663 0.36923,-4.181876 0.6582,-6.144531 l 0.067,0.07424 z m 349.7207,0.0957 c 0.86054,1.056286 1.57039,2.670317 0.69478,3.923461 -0.38975,0.747306 -0.91161,1.419986 -1.50142,2.019899 0.24181,-2.059458 0.35787,-4.109024 0.65039,-6.119141 0.0521,0.05859 0.10417,0.117187 0.15625,0.175781 z m -96.34375,0.898438 c 2.87272,0.36176 5.51382,2.586417 6.05002,5.488596 0.5784,2.039372 1.14391,4.195678 0.59842,6.308279 -0.37679,1.519291 -0.88039,3.091472 -1.88262,4.317396 -1.1718,1.045183 -2.77572,1.366362 -4.24238,1.788072 -3.36539,0.776895 -6.95286,-1.724422 -7.58721,-5.076932 -0.56466,-2.267142 -0.45493,-4.594795 0.032,-6.793868 0.37974,-2.283625 1.927,-4.30171 3.9249,-5.420223 0.97557,-0.416134 2.04204,-0.667292 3.10691,-0.61132 z M 159.9707,43.113281 c 0.18839,2.658447 0.0663,5.310773 -0.15703,7.969547 -0.0804,1.1169 -0.15665,2.234313 -0.16133,3.354672 -1.20441,-1.349614 -2.68648,-2.467618 -3.5888,-4.066664 -0.85819,-1.173413 -1.70308,-2.356951 -2.59674,-3.503648 1.94202,-1.457115 3.76993,-3.053293 5.64453,-4.589844 0.20799,-0.554745 0.45263,-1.09402 0.71094,-1.626953 0.0495,0.820963 0.099,1.641927 0.14843,2.46289 z m 303.87696,6.498047 c 1.53217,-0.0049 3.142,0.0696 4.52148,0.808594 -1.90428,0.08859 -3.81868,0.414851 -5.71875,0.09961 -0.067,-0.576927 -0.002,-1.070153 0.66507,-0.890925 0.1774,-0.0054 0.35477,-0.01298 0.5322,-0.01728 z m -180.32422,0.0059 c 1.57477,0.02274 3.2645,-0.03012 4.67187,0.791015 -1.88907,0.114864 -3.79289,0.402674 -5.67969,0.109375 -0.0572,-0.568743 -0.0183,-1.07901 0.69279,-0.891191 0.10501,-0.0027 0.21,-0.0073 0.31503,-0.0092 z m -31.23633,7.630859 c -0.92312,-0.03157 -1.35686,1.031516 -1.02924,1.795926 0.42433,1.089888 0.31469,2.484556 1.32611,3.262668 0.48701,-0.132387 0.40514,0.396907 0.35352,0.689453 0.0323,0.811641 0.85055,1.170235 1.53711,1.28125 0.47502,0.06823 0.80872,0.280615 0.88672,0.765625 0.29353,0.811832 1.61576,1.082255 1.97461,0.193359 0.68179,-1.39114 1.12343,-3.071794 0.63281,-4.59375 -0.16373,-0.895328 -1.41625,-0.865034 -1.89453,-0.236328 -0.27941,-0.160138 -0.1996,-0.749959 -0.5144,-1.004334 -0.69538,-0.896063 -1.86531,-1.195264 -2.65943,-1.980041 -0.18929,-0.10403 -0.3964,-0.172253 -0.61328,-0.173828 z m 15.33594,1.603515 c -0.62049,0.55292 -1.32317,-0.489078 -0.32535,-0.421285 0.46872,-0.234002 0.28344,0.124666 0.32535,0.421285 z m -35.80078,-0.162109 c -0.95271,0.211229 -2.21562,0.812499 -2.04102,1.986328 0.23189,0.804315 0.77455,1.547625 1.51367,1.960938 -0.17737,0.659441 0.43957,1.167117 1.06055,1.085937 0.63228,0.413517 1.40451,0.975515 2.17969,0.535156 0.52681,-0.175815 0.51043,-0.843728 0.97461,-1.044921 0.7899,-0.537237 0.47964,-1.922573 -0.48047,-2.00586 -0.37704,-0.174525 -0.51912,-0.363475 -0.28516,-0.730469 0.0922,-0.771688 -0.68344,-1.246509 -1.37109,-1.271484 -0.43019,-0.316569 -0.99406,-0.619841 -1.55078,-0.515625 z m 13.25195,0.166016 c -1.95875,0.163692 -3.71662,1.147059 -5.60969,1.602766 -0.3281,0.181517 1.00304,0.396937 1.31585,0.591549 0.28789,0.232623 0.99382,-0.03889 0.93251,0.465841 0.18986,0.456035 -0.58712,0.616627 -0.8125,0.939453 -0.76176,0.596298 -1.52348,1.192648 -2.28516,1.789063 1.74493,-0.01481 3.45878,0.312611 5.1875,0.478515 1.24369,0.04007 2.24667,-0.873093 3.04883,-1.707031 0.56223,-0.233609 1.46838,-0.477569 1.4336,-1.25 -0.0754,-0.384017 -0.33026,-0.6802 -0.32227,-1.099609 -0.087,-0.564 -0.69105,-0.705118 -1.04297,-1.003907 -0.39495,-0.561212 -1.16341,-0.868665 -1.8457,-0.80664 z" /></g></g><g
     inkscape:groupmode="layer"
     id="layer9"
     inkscape:label="Cup Color"
     style="opacity:1;fill:#ffbf9b;fill-opacity:1;stroke:none"
     transform="translate(2.6439981,2.489263)"><path
       id="path117"
       style="display:inline;opacity:1;fill:#ffbf9b;fill-opacity:1;stroke:none;stroke-width:0.22688px;stroke-linecap:butt;stroke-linejoin:miter;stroke-opacity:1"
       d="M 63.672374,1.9918251 C 62.923807,2.0072262 62.229349,2.043887 61.597654,2.1039789 51.490657,3.0665393 33.602879,4.7509577 27.426388,7.237604 21.249896,9.7242305 18.522315,12.291238 17.39932,14.45701 c -1.123002,2.165783 -0.641741,4.892882 0.240616,6.096095 0.882357,1.203213 1.444149,3.208685 1.444149,3.208685 -0.80214,0 -5.935903,-0.320855 -8.101681,0.08027 -2.1657867,0.401054 -8.8239511,4.331536 -9.1448055,8.823534 -0.3208566,4.492017 -0.079873,17.487021 1.0431214,18.690225 1.1229993,1.203232 5.0534694,5.61488 8.8235371,5.695091 3.770061,0.08027 8.021412,-0.641797 8.663124,-0.08019 0.641711,0.561497 4.090839,9.064435 5.133622,10.50831 1.042788,1.443846 9.385423,10.42793 13.877393,12.272821 4.492006,1.844929 16.363546,5.775312 27.513293,5.454458 11.149783,-0.320854 27.59379,-8.101516 29.278254,-9.705803 1.684507,-1.604288 10.107177,-13.717064 11.149967,-17.246482 1.04278,-3.529407 1.20308,-35.855649 1.20308,-35.855649 0,0 3.20866,-3.208465 3.44932,-5.133626 0.24059,-1.925108 -3.77006,-7.5404854 -8.90376,-9.3051843 C 98.2557,6.3051493 74.900792,1.7604922 63.672374,1.991984 Z M 61.717746,8.2000255 A 35.093838,7.9813416 0 0 1 91.123621,11.828353 35.093838,7.9813416 0 0 0 68.009253,9.852461 35.093838,7.9813416 0 0 0 32.915404,17.833596 35.093838,7.9813416 0 0 0 38.668957,22.19487 35.093838,7.9813416 0 0 1 26.623887,16.181638 35.093838,7.9813416 0 0 1 61.717746,8.2000255 Z M 35.287456,27.852704 h 2.646797 v 13.074937 h -2.646797 z m -24.465465,5.69507 h 7.218975 v 13.396201 h -7.218975 z m 65.053644,26.150283 h 2.647244 v 2.486368 h -2.647244 z"
       inkscape:label="Cup Fill" /><path
       id="path121"
       style="opacity:1;fill:#fff4e0;fill-opacity:1;stroke:none;stroke-width:0;stroke-linecap:round;stroke-linejoin:round;stroke-opacity:1"
       d="M 62.941218,8.3604373 A 36.397328,8.0214483 0 0 0 26.543683,16.381921 36.397328,8.0214483 0 0 0 40.431707,22.667233 36.397328,8.0214483 0 0 1 32.020726,17.556659 36.397328,8.0214483 0 0 1 68.418266,9.5356216 36.397328,8.0214483 0 0 1 90.921996,11.254507 36.397328,8.0214483 0 0 0 62.941218,8.3604373 Z M 35.367665,27.993173 v 12.392953 h 2.345909 V 27.993173 Z m 41.784177,32.156432 a 0.85434806,0.85434806 0 0 0 -0.854349,0.85432 0.85434806,0.85434806 0 0 0 0.854349,0.85436 0.85434806,0.85434806 0 0 0 0.854357,-0.85436 0.85434806,0.85434806 0 0 0 -0.854357,-0.85432 z"
       inkscape:label="Highlights" /></g><path
     id="path20"
     style="display:inline;opacity:1;fill:#4d4d4d;fill-opacity:1;stroke:none;stroke-width:0;stroke-linecap:round;stroke-linejoin:round"
     inkscape:label="Cup"
     d="m 66.680095,3.1442104 a 50.08654,16.053378 0 0 0 -50.086427,16.0532436 50.08654,16.053378 0 0 0 3.494229,5.756463 h -5.96168 v 0.002 a 10.803167,10.803167 0 0 0 -0.0729,-0.005 l -0.0036,-0.002 A 10.803167,10.803167 0 0 0 3.254683,35.645956 H 3.245793 V 50.08388 h 0.00889 a 10.803167,10.803167 0 0 0 10.795899,10.702938 10.803167,10.803167 0 0 0 0.131531,-0.009 h 7.333298 a 46.429369,36.718456 0 0 0 12.496165,18.24535 H 17.621608 a 3.8559531,3.8559531 0 0 0 -0.0756,-9.93e-4 v -9.94e-4 a 3.8559531,3.8559531 0 0 0 -3.856421,3.855667 3.8559531,3.8559531 0 0 0 3.834434,3.854482 v 0.0031 H 29.96541 v 0.0079 a 1.4653693,1.4653693 0 0 1 0.02821,-0.0079 h 0.433156 a 1.4653693,1.4653693 0 0 1 1.251666,1.407482 1.4653693,1.4653693 0 0 1 -1.059182,1.400932 h -0.653789 -7.155482 v 0.0079 a 3.3606166,3.3606166 0 0 0 -3.334158,3.358464 3.3606166,3.3606166 0 0 0 3.361545,3.361145 3.3606166,3.3606166 0 0 0 0.09991,-0.0079 h 23.376116 a 3.8559531,3.8559531 0 0 0 3.673975,2.742858 v 7.45e-4 h 45.176611 a 3.8559531,3.8559531 0 0 0 0.0053,0 3.8559531,3.8559531 0 0 0 3.856819,-3.856798 3.8559531,3.8559531 0 0 0 -3.856819,-3.855269 3.8559531,3.8559531 0 0 0 -0.0053,0 h -0.799223 a 2.3734854,2.3734854 0 0 1 -1.801309,-2.264962 2.3734854,2.3734854 0 0 1 1.900055,-2.295016 h 17.758149 v -0.0099 a 3.8559531,3.8559531 0 0 0 0.13962,0.0099 3.8559531,3.8559531 0 0 0 3.85564,-3.856431 3.8559531,3.8559531 0 0 0 -3.85564,-3.855248 3.8559531,3.8559531 0 0 0 -0.13962,0.0099 v -0.0089 H 99.579689 A 46.429369,36.718456 0 0 0 113.19829,53.465418 h 0.0109 V 53.3551 a 46.429369,36.718456 0 0 0 0.0157,-0.181683 46.429369,36.718456 0 0 0 -0.0157,-0.551561 v -27.58126 a 50.08654,16.053378 0 0 0 3.55637,-5.84209 A 50.08654,16.053378 0 0 0 66.679138,3.1452537 Z m 0.03163,3.3788819 v 3.873e-4 h 3.85e-4 a 45.952586,13.066245 0 0 1 45.9519,13.0670194 45.952586,13.066245 0 0 1 -3.32336,4.854272 v 2.978524 a 49.099082,15.736888 0 0 0 7.6e-4,-9.93e-4 v 23.594099 a 42.653277,34.515288 0 0 1 0.0138,0.518423 42.653277,34.515288 0 0 1 -0.0138,0.170875 v 0.103358 h -0.0104 A 42.653277,34.515288 0 0 1 66.70252,86.049414 42.653277,34.515288 0 0 1 24.073979,51.80912 h -0.02238 v -0.246881 a 42.653277,34.515288 0 0 1 -0.0038,-0.02732 42.653277,34.515288 0 0 1 0.0038,-0.02832 V 27.463546 24.756944 24.418295 A 45.952586,13.066245 0 0 1 20.759502,19.590608 45.952586,13.066245 0 0 1 66.711788,6.5235989 Z m -0.168948,2.4527954 3.79e-4,3.874e-4 a 42.984711,10.544797 0 0 0 -42.984553,10.5440289 42.984711,10.544797 0 0 0 14.32563,7.855162 5.5931699,5.5931699 0 0 0 -0.655743,2.554238 5.5931699,5.5931699 0 0 0 0.0053,0.06259 v 18.821993 a 5.5931699,5.5931699 0 0 0 -0.0037,0.05107 5.5931699,5.5931699 0 0 0 5.592935,5.593308 5.5931699,5.5931699 0 0 0 5.59253,-5.58058 h 0.0015 v -6.642881 a 5.4590171,5.4590171 0 0 1 5.230365,-4.040807 5.4590171,5.4590171 0 0 1 5.306717,4.233281 v 18.443195 a 5.8836566,5.8836566 0 0 0 -0.0037,0.05286 5.8836566,5.8836566 0 0 0 5.884146,5.884148 5.8836566,5.8836566 0 0 0 5.882223,-5.870646 h 0.0015 V 42.188436 a 3.2816019,3.2816019 0 0 1 3.206097,-2.817297 3.2816019,3.2816019 0 0 1 3.185269,2.672264 v 11.568508 a 4.216327,4.216327 0 0 0 -0.0037,0.03834 4.216327,4.216327 0 0 0 4.216698,4.215934 4.216327,4.216327 0 0 0 4.215913,-4.206663 h 7.41e-4 V 40.196537 h 0.0091 a 3.2403238,3.2403238 0 0 1 3.195295,-2.951915 3.2403238,3.2403238 0 0 1 3.180636,2.774115 v 2.36407 a 4.1049251,4.1049251 0 0 0 -0.0015,0.03825 4.1049251,4.1049251 0 0 0 0.0037,0.02802 v 4.087486 a 4.1049251,4.1049251 0 0 0 -0.0015,0.03736 4.1049251,4.1049251 0 0 0 4.104829,4.104434 4.1049251,4.1049251 0 0 0 4.104446,-4.095563 h 7.4e-4 V 32.658363 h -7.2e-4 v -4.152642 h -0.001 A 4.1049251,4.1049251 0 0 0 99.450319,26.302866 41.23137,9.5764979 0 0 0 100.0316,26.101133 42.984711,10.544797 0 0 0 109.5284,19.520384 42.984711,10.544797 0 0 0 66.5437,8.9760268 Z m -0.0023,2.5596333 a 36.583352,7.3313796 0 0 1 16.103865,0.765278 37.893067,8.5660561 0.6683249 0 0 -10.915094,-0.502985 37.893067,8.5660561 0.6683249 0 0 -37.990275,8.123247 37.893067,8.5660561 0.6683249 0 0 2.33052,2.944194 36.583352,7.3313796 0 0 1 -6.112106,-3.998362 36.583352,7.3313796 0 0 1 36.58317,-7.331372 z M 15.155652,27.893493 a 8.9504145,8.9504145 0 0 1 0.06132,0.005 V 27.8975 h 5.154368 v 4.627073 h -3.65122 v 7.56e-4 a 6.1472467,6.1472467 0 0 0 -0.04129,-0.0039 l -0.0015,-9.95e-4 a 6.1472467,6.1472467 0 0 0 -6.142614,6.08782 h -0.005 v 8.215459 h 0.005 a 6.1472467,6.1472467 0 0 0 6.143349,6.090113 6.1472467,6.1472467 0 0 0 0.07482,-0.005 h 3.618434 v 0.234145 a 46.429369,36.718456 0 0 0 -0.0035,0.03 46.429369,36.718456 0 0 0 0.0035,0.03 v 0.261914 h 0.02353 a 46.429369,36.718456 0 0 0 0.411564,4.112932 h -5.543174 a 8.9504145,8.9504145 0 0 1 -0.1084,0.0089 8.9504145,8.9504145 0 0 1 -8.9444447,-8.867686 h -0.007 v -11.94327 h 0.00888 a 9.118456,9.118456 0 0 1 0.1512087,-1.56525 8.9504145,8.9504145 0 0 1 8.792859,-7.315177 z m 24.004869,3.025209 h 3.71e-4 a 0.53065724,0.53065724 0 0 1 0.53037,0.530726 0.53065724,0.53065724 0 0 1 -0.0044,0.0617 v 0.479059 a 0.53065724,0.53065724 0 0 1 0.0044,0.06686 0.53065724,0.53065724 0 0 1 -0.0044,0.062 0.53065724,0.53065724 0 0 0 0,3.87e-4 0.53065724,0.53065724 0 0 0 0,3.98e-4 0.53065724,0.53065724 0 0 0 0,3.77e-4 0.53065724,0.53065724 0 0 0 0,3.97e-4 0.53065724,0.53065724 0 0 1 -0.526517,0.467118 0.53065724,0.53065724 0 0 1 -0.526115,-0.467118 h -7.49e-4 v -0.01511 a 0.53065724,0.53065724 0 0 1 -0.0037,-0.04859 0.53065724,0.53065724 0 0 1 0.0037,-0.04828 v -0.511083 a 0.53065724,0.53065724 0 0 1 -0.0037,-0.04829 0.53065724,0.53065724 0 0 1 0.530366,-0.530744 z m 0,2.512938 h 3.71e-4 a 0.8146393,0.8146393 0 0 1 0.814643,0.814636 0.8146393,0.8146393 0 0 1 -0.0037,0.04989 v 3.653166 a 0.8146393,0.8146393 0 0 1 0.0037,0.07402 0.8146393,0.8146393 0 0 1 -0.0037,0.04978 0.8146393,0.8146393 0 0 0 0,3.89e-4 0.8146393,0.8146393 0 0 0 0,3.76e-4 0.8146393,0.8146393 0 0 0 0,3.98e-4 0.8146393,0.8146393 0 0 0 0,3.78e-4 0.8146393,0.8146393 0 0 0 0,3.98e-4 0.8146393,0.8146393 0 0 0 0,3.77e-4 0.8146393,0.8146393 0 0 0 0,3.97e-4 0.8146393,0.8146393 0 0 1 -0.811154,0.762177 0.8146393,0.8146393 0 0 1 -0.811174,-0.762177 h -3.88e-4 v -0.01392 a 0.8146393,0.8146393 0 0 1 -0.0023,-0.03854 0.8146393,0.8146393 0 0 1 0.0023,-0.03835 v -3.699837 a 0.8146393,0.8146393 0 0 1 0,-9.93e-4 0.8146393,0.8146393 0 0 1 -0.0023,-0.03706 0.8146393,0.8146393 0 0 1 0.814648,-0.814646 z m -21.673966,3.202652 -3.85e-4,3.77e-4 v 7.45e-4 a 3.6939611,3.6939611 0 0 1 0.02468,9.95e-4 h 2.257616 v 7.45e-4 h 0.602878 v 12.247027 h -0.602102 v 7.65e-4 h -2.237175 a 3.6939611,3.6939611 0 0 1 -0.04473,0.0031 3.6939611,3.6939611 0 0 1 -3.692105,-3.660468 h -0.0039 v -4.936472 h 0.0039 a 3.6939611,3.6939611 0 0 1 3.691332,-3.658571 z m 21.673966,2.907174 a 0.9874415,0.9874415 0 0 1 0.987427,0.987449 0.9874415,0.9874415 0 0 1 -0.0044,0.05941 v 0.984737 a 0.9874415,0.9874415 0 0 1 0.0044,0.09142 0.9874415,0.9874415 0 0 1 -0.987427,0.987429 0.9874415,0.9874415 0 0 1 -0.983217,-0.92882 h -0.0015 v -0.02087 a 0.9874415,0.9874415 0 0 1 -0.0023,-0.03795 0.9874415,0.9874415 0 0 1 0.0023,-0.03775 v -1.059939 a 0.9874415,0.9874415 0 0 1 -0.0023,-0.03775 0.9874415,0.9874415 0 0 1 0.987441,-0.987449 z m 42.166071,21.216137 a 4.1884721,4.1884721 0 0 0 -4.188152,4.188531 4.1884721,4.1884721 0 0 0 4.188152,4.188523 4.1884721,4.1884721 0 0 0 4.188514,-4.188523 4.1884721,4.1884721 0 0 0 -4.188514,-4.188531 z m -1.519351,1.994571 a 0.73138354,0.73138354 0 0 1 0.731312,0.731685 0.73138354,0.73138354 0 0 1 -0.731312,0.731327 0.73138354,0.73138354 0 0 1 -0.731335,-0.731327 0.73138354,0.73138354 0 0 1 0.731335,-0.731685 z m 24.062709,28.539741 a 3.8559531,3.8559531 0 0 0 -3.85641,3.855269 3.8559531,3.8559531 0 0 0 3.85641,3.856798 3.8559531,3.8559531 0 0 0 0.0466,-0.0031 v 0.0031 h 7.71634 a 3.8559531,3.8559531 0 0 0 0.004,0 3.8559531,3.8559531 0 0 0 3.85642,-3.856798 3.8559531,3.8559531 0 0 0 -3.85642,-3.855269 3.8559531,3.8559531 0 0 0 -0.004,0 h -7.71634 v 7.46e-4 a 3.8559531,3.8559531 0 0 0 -0.0466,-7.46e-4 z" /><g
     inkscape:groupmode="layer"
     id="layer6"
     inkscape:label="Bottom Text"
     style="fill:#a0ced9;fill-opacity:1"
     transform="translate(2.6439981,2.489263)"><text
       xml:space="preserve"
       style="font-style:normal;font-variant:normal;font-weight:normal;font-stretch:normal;font-size:35.5512px;font-family:Stylish;-inkscape-font-specification:Stylish;fill:#b46060;fill-opacity:1;stroke:none;stroke-width:0.519624;stroke-linecap:round;stroke-opacity:1"
       x="263.51718"
       y="92.79158"
       id="text2"
       inkscape:label="Text - Studio"><tspan
         sodipodi:role="line"
         id="tspan2"
         style="font-size:35.5512px;fill:#b46060;fill-opacity:1;stroke:none;stroke-width:0.519624;stroke-opacity:1"
         x="263.51718"
         y="92.79158">STUDIO</tspan></text><rect
       style="fill:#b46060;fill-opacity:1;stroke:none;stroke-width:0.418285;stroke-linecap:round;stroke-linejoin:round;stroke-dasharray:none;paint-order:normal"
       id="rect2"
       width="110.16039"
       height="6.3636713"
       x="393.73352"
       y="78.512482"
       inkscape:label="Rect - Right"
       ry="0.29459196" /><rect
       style="fill:#b46060;fill-opacity:1;stroke:none;stroke-width:0.418285;stroke-linecap:round;stroke-linejoin:round;stroke-dasharray:none;paint-order:normal"
       id="rect2-4"
       width="110.16039"
       height="6.3636713"
       x="133.50696"
       y="78.51226"
       inkscape:label="Rect - Left"
       rx="0.29105258"
       ry="0.29105258" /></g><g
     inkscape:groupmode="layer"
     id="layer4"
     inkscape:label="Top Text"
     style="display:inline;fill:#a0ced9;fill-opacity:1"
     transform="translate(2.6439981,2.489263)"><text
       xml:space="preserve"
       style="font-style:normal;font-variant:normal;font-weight:normal;font-stretch:normal;font-size:53.3267px;font-family:Skranji;-inkscape-font-specification:Skranji;fill:#4d4d4d;fill-opacity:1;stroke:none;stroke-width:0.519624;stroke-linecap:round"
       x="127.17429"
       y="61.445274"
       id="text1"
       inkscape:label="Text - Runneth Over"><tspan
         sodipodi:role="line"
         id="tspan1"
         style="font-size:53.3267px;fill:#4d4d4d;fill-opacity:1;stroke:none;stroke-width:0.519624"
         x="127.17429"
         y="61.445274">RUNNETH OVER</tspan></text></g></svg>
