<?xml version="1.0" encoding="UTF-8" standalone="no"?>
<!-- Created with Inkscape (http://www.inkscape.org/) -->

<svg
   width="210.10899mm"
   height="202.04919mm"
   viewBox="0 0 512 512"
   version="1.1"
   id="svg1"
   inkscape:version="1.3.2 (091e20e, 2023-11-25, custom)"
   sodipodi:docname="github.svg"
   xmlns:inkscape="http://www.inkscape.org/namespaces/inkscape"
   xmlns:sodipodi="http://sodipodi.sourceforge.net/DTD/sodipodi-0.dtd"
   xmlns="http://www.w3.org/2000/svg"
   xmlns:svg="http://www.w3.org/2000/svg">
  <sodipodi:namedview
     id="namedview1"
     pagecolor="#ffffff"
     bordercolor="#000000"
     borderopacity="0.25"
     inkscape:showpageshadow="2"
     inkscape:pageopacity="0.0"
     inkscape:pagecheckerboard="0"
     inkscape:deskcolor="#d1d1d1"
     inkscape:document-units="mm"
     inkscape:zoom="1"
     inkscape:cx="355"
     inkscape:cy="400.5"
     inkscape:window-width="3440"
     inkscape:window-height="1369"
     inkscape:window-x="1912"
     inkscape:window-y="-8"
     inkscape:window-maximized="1"
     inkscape:current-layer="layer1" />
  <defs
     id="defs1" />
  <g
     inkscape:label="Layer 1"
     inkscape:groupmode="layer"
     id="layer1"
     transform="translate(0.13288415,-115.35299)">
    <path
       style="fill:#b46060;fill-opacity:1;stroke:#b46060;stroke-width:0.273253px;stroke-linecap:butt;stroke-linejoin:miter;stroke-opacity:1"
       d="m 167.89061,527.56457 q -1.07286,4.23726 -5.36442,4.23726 -6.43729,0 -6.43729,-4.23726 1.07286,-3.17798 5.36443,-3.17798 5.36442,0 6.43728,3.17798 z m -33.25939,-4.23728 q -1.07286,3.17796 4.29153,5.29658 5.36443,1.05931 6.4373,-2.11862 1.07291,-4.23729 -4.29152,-5.29657 -5.36442,-1.05936 -6.43731,2.11861 z m 47.2069,-2.11861 q -5.36444,1.05928 -5.36444,5.29657 1.0729,3.17793 6.43732,3.17793 5.36443,-2.11861 5.36443,-5.29659 -1.0729,-3.17791 -6.43731,-3.17791 z M 252.6485,115.48963 q -114.79864,2.11866 -187.754758,74.15229 v 0 0 q -72.9561304,72.03367 -75.101898,184.32146 1.0728833,90.04206 50.425561,157.83845 49.352673,67.7964 131.964745,95.33867 19.31192,1.05933 18.23904,-12.71182 0,-4.23727 0,-15.88977 0,-24.36434 0,-48.72864 -2.14576,0 -20.38481,2.11862 -19.31191,1.05931 -40.76958,-4.23727 -21.45768,-6.35592 -30.040758,-29.66093 0,-2.11863 -8.583079,-16.9491 -8.583073,-13.77112 -21.457685,-22.2457 -2.145766,-1.05929 -8.583073,-8.47451 -7.510189,-6.35594 10.728841,-7.41526 1.072887,-1.05931 15.02038,4.23726 13.947484,4.23728 25.749234,23.30501 19.3119,28.60162 41.84247,28.60162 23.60345,0 36.47806,-6.35591 4.29155,-25.42363 17.16617,-36.01683 -47.20691,-2.11863 -82.61209,-23.30499 -35.405192,-20.1271 -37.550961,-94.2794 0,-21.18635 6.437305,-34.95749 5.364428,-13.77113 18.239046,-26.48295 -2.14578,-6.35592 -4.29154,-25.42367 -2.14579,-19.06772 7.51018,-46.61003 19.31192,-3.17792 45.06115,11.65253 26.82208,13.77114 28.96785,16.94909 0,0 0,0 32.18652,-9.53387 67.59171,-9.53387 34.3323,0 67.59171,9.53387 0,-1.05931 13.94748,-9.53387 12.87463,-8.47455 30.04078,-14.83048 17.16613,-7.41519 30.04075,-4.23727 9.65596,27.54231 7.51017,46.61003 -2.14575,19.06775 -5.36442,25.42367 12.87462,12.71182 20.38483,26.48295 7.51017,13.77114 7.51017,34.95749 -1.07288,50.84732 -18.23902,75.21164 -18.23907,23.30501 -46.13404,31.77956 -27.89498,8.47456 -59.00862,10.59319 17.16616,11.65249 18.23906,48.72867 0,39.19476 0,69.915 0,13.77117 0,19.06774 -1.0729,13.77115 18.239,12.71182 81.53922,-27.54227 130.89189,-95.33867 48.2798,-67.79639 49.35264,-157.83845 Q 520.86955,299.81106 485.46435,241.54855 448.9863,183.28602 388.90477,149.38782 327.75038,116.54893 252.6485,115.48963 Z M 93.861614,480.95453 q -2.145767,2.11864 1.072888,5.2966 3.21865,3.17797 5.364408,1.05934 2.14577,-2.11864 -1.072868,-5.2966 -2.14577,-3.17798 -5.364428,-1.05934 z M 82.05989,472.48001 q 0,2.11863 3.218652,4.23726 3.218652,1.05933 4.291536,-1.05932 1.072885,-2.11865 -2.145769,-4.23729 -3.218649,-1.05928 -5.364419,1.05935 z m 35.40519,37.07613 q -2.14578,3.17796 1.07288,7.41523 4.29155,3.17795 7.51017,1.05932 1.07289,-3.17795 -2.14576,-7.41522 -4.29154,-3.17796 -6.43729,-1.05933 z M 104.59045,494.7257 q -2.14577,2.11863 0,6.35589 3.21867,3.17798 6.43731,2.11864 2.14577,-2.11864 0,-6.3559 -3.21864,-4.23727 -6.43731,-2.11863 z"
       id="path1" />
  </g>
</svg>
