<?xml version="1.0" encoding="UTF-8" standalone="no"?>
<!-- Created with Inkscape (http://www.inkscape.org/) -->

<svg
   width="210.10899mm"
   height="210.10899mm"
   viewBox="0 0 512 512"
   version="1.1"
   id="svg1"
   inkscape:version="1.4 (86a8ad7, 2024-10-11)"
   sodipodi:docname="theme-icon-light.svg"
   xmlns:inkscape="http://www.inkscape.org/namespaces/inkscape"
   xmlns:sodipodi="http://sodipodi.sourceforge.net/DTD/sodipodi-0.dtd"
   xmlns="http://www.w3.org/2000/svg"
   xmlns:svg="http://www.w3.org/2000/svg">
  <sodipodi:namedview
     id="namedview1"
     pagecolor="#ffffff"
     bordercolor="#000000"
     borderopacity="0.25"
     inkscape:showpageshadow="2"
     inkscape:pageopacity="0.0"
     inkscape:pagecheckerboard="0"
     inkscape:deskcolor="#d1d1d1"
     inkscape:document-units="mm"
     inkscape:zoom="1.0806047"
     inkscape:cx="396.53724"
     inkscape:cy="397.46264"
     inkscape:window-width="2560"
     inkscape:window-height="1494"
     inkscape:window-x="-11"
     inkscape:window-y="-11"
     inkscape:window-maximized="1"
     inkscape:current-layer="layer1" />
  <defs
     id="defs1" />
  <g
     inkscape:label="Layer 1"
     inkscape:groupmode="layer"
     id="layer1"
     transform="translate(0.21167277,-105.84545)">
    <path
       style="fill:#b46060;fill-opacity:1;stroke:#b46060;stroke-width:0.422059px;stroke-linecap:butt;stroke-linejoin:miter;stroke-opacity:1"
       d="m 255.78833,106.05694 q 14.9876,0.99917 15.98678,15.98678 v 79.93391 0 q -0.99918,14.9876 -15.98678,15.98678 -14.98761,-0.99918 -15.98679,-15.98678 v -79.93391 0 q 0.99918,-14.98761 15.98679,-15.98678 z M -1.8063812e-4,361.84545 Q 0.99899323,346.85784 15.986602,345.85866 h 79.933909 v 0 q 14.987599,0.99918 15.986779,15.98679 -0.99918,14.9876 -15.986779,15.98678 H 15.986602 v 0 Q 0.99899323,376.83305 -1.8063812e-4,361.84545 Z m 399.66954063812,0 q 0.99918,-14.98761 15.98679,-15.98679 h 79.9339 v 0 q 14.98761,0.99918 15.98678,15.98679 -0.99917,14.9876 -15.98678,15.98678 h -79.9339 v 0 q -14.98761,-0.99918 -15.98679,-15.98678 z M 255.78833,505.72648 q 14.9876,0.99918 15.98678,15.98679 v 79.9339 0 q -0.99918,14.98761 -15.98678,15.98678 -14.98761,-0.99917 -15.98679,-15.98678 v -79.9339 0 q 0.99918,-14.98761 15.98679,-15.98679 z M 74.93786,180.99498 q 10.990913,-8.99257 22.980999,0 l 55.953731,56.95291 v 0 q 8.99256,10.99091 0,21.98182 -10.99091,9.99174 -21.98182,0 L 74.93786,203.97598 v 0 q -8.992565,-11.99009 0,-22.981 z m 0,361.70094 q -8.992565,-10.99092 0,-22.98101 l 56.95291,-55.95373 v 0 q 10.99091,-8.99257 21.98182,0 9.99174,10.99091 0,21.98182 l -55.953731,56.95292 v 0 q -11.990086,8.99256 -22.980999,0 z m 282.7662,-282.76621 q -8.99257,-10.99091 0,-21.98182 l 55.95373,-56.95291 v 0 q 11.99009,-8.99257 22.98101,0 8.99256,10.99091 0,22.981 l -56.95292,55.95373 v 0 q -10.99091,8.99256 -21.98182,0 z m 0,203.83147 q 10.99091,-8.99257 21.98182,0 l 56.95292,55.95373 v 0 q 8.99256,11.99009 0,22.98101 -10.99092,8.99256 -22.98101,0 L 357.70406,485.743 v 0 q -8.99257,-10.99091 0,-21.98182 z M 335.72223,361.84545 q -0.99917,-44.96283 -39.96696,-68.943 -39.96694,-21.98182 -79.9339,0 -38.96778,23.98017 -39.96696,68.943 0.99918,44.96282 39.96696,68.943 39.96696,21.98182 79.9339,0 38.96779,-23.98018 39.96696,-68.943 z m -191.84137,0 q 0,-29.97523 14.9876,-55.95374 v 0 0 q 14.98761,-25.97852 40.96613,-40.96613 25.97851,-14.9876 55.95374,-14.9876 29.97521,0 55.95373,14.9876 25.97852,14.98761 40.96613,40.96613 14.98761,25.97851 14.98761,55.95374 0,29.97521 -14.98761,55.95373 -14.98761,25.97852 -40.96613,40.96613 -25.97852,14.98761 -55.95373,14.98761 -29.97523,0 -55.95374,-14.98761 -25.97852,-14.98761 -40.96613,-40.96613 -14.9876,-25.97852 -14.9876,-55.95373 z"
       id="path1" />
  </g>
</svg>
