<?xml version="1.0" encoding="UTF-8" standalone="no"?>
<!-- Created with Inkscape (http://www.inkscape.org/) -->

<svg
   width="210.11456mm"
   height="210.11069mm"
   viewBox="0 0 512 512"
   version="1.1"
   id="svg1"
   inkscape:version="1.3.2 (091e20e, 2023-11-25, custom)"
   sodipodi:docname="steam.svg"
   xmlns:inkscape="http://www.inkscape.org/namespaces/inkscape"
   xmlns:sodipodi="http://sodipodi.sourceforge.net/DTD/sodipodi-0.dtd"
   xmlns="http://www.w3.org/2000/svg"
   xmlns:svg="http://www.w3.org/2000/svg">
  <sodipodi:namedview
     id="namedview1"
     pagecolor="#ffffff"
     bordercolor="#000000"
     borderopacity="0.25"
     inkscape:showpageshadow="2"
     inkscape:pageopacity="0.0"
     inkscape:pagecheckerboard="0"
     inkscape:deskcolor="#d1d1d1"
     inkscape:document-units="mm"
     inkscape:zoom="1.0449705"
     inkscape:cx="530.15851"
     inkscape:cy="470.34821"
     inkscape:window-width="3440"
     inkscape:window-height="1369"
     inkscape:window-x="1912"
     inkscape:window-y="-8"
     inkscape:window-maximized="1"
     inkscape:current-layer="layer1" />
  <defs
     id="defs1" />
  <g
     inkscape:label="Layer 1"
     inkscape:groupmode="layer"
     id="layer1"
     transform="translate(0.14440296,-105.9222)">
    <path
       style="fill:#b46060;fill-opacity:1;stroke:#b46060;stroke-width:0.269651px;stroke-linecap:butt;stroke-linejoin:miter;stroke-opacity:1"
       d="m 511.7187,361.92221 q -1.03169,71.1864 -35.07735,128.96086 v 0 0 q -34.04567,57.77447 -91.82014,91.82014 v 0 0 Q 327.04674,616.74888 255.86034,617.78056 166.10358,615.71719 99.043921,565.16453 33.015957,513.58019 9.2871581,432.07692 L 107.29742,472.3127 v 0 q 5.15844,24.7605 24.76049,41.26749 19.60205,16.50698 46.42591,16.50698 30.95061,0 51.58435,-21.66542 20.63374,-21.66542 20.63374,-53.64772 l 86.6617,-61.90122 v 0 q 42.29916,0 70.15471,-27.85555 27.85554,-26.82386 28.88723,-69.12302 -1.03169,-41.26748 -27.85555,-68.09134 -27.85554,-26.82386 -68.09133,-27.85555 -41.26748,1.03169 -69.12303,27.85555 -26.82386,26.82386 -27.85555,68.09134 v 1.03169 0 l -60.86952,88.72508 v 0 q -24.76049,-1.03169 -45.39423,12.38024 L 0.0019756,341.28847 v 0 Q 10.318845,240.18315 81.505243,174.15518 151.65996,108.12721 255.86034,106.06384 q 71.1864,1.03168 128.96087,35.07736 57.77447,34.04567 91.82014,91.82014 34.04566,57.77446 35.07735,128.96087 z m -350.77356,132.05592 -31.98229,-12.38024 31.98229,12.38024 -31.98229,-12.38024 q 9.28518,18.57036 27.85555,25.79218 21.66542,9.28518 42.29916,1.03168 19.60205,-8.2535 28.88723,-29.91892 9.28518,-20.63374 1.03169,-41.26748 -9.28518,-20.63373 -29.91892,-29.91892 -20.63374,-8.2535 -40.23579,0 l 33.01398,13.41193 v 0 q 15.4753,6.19012 21.66543,21.66543 5.15843,14.44361 0,29.91891 -7.22182,15.47531 -22.69712,21.66543 -14.44361,6.19012 -29.91892,0 z m 179.51353,-134.1193 q -27.85555,0 -46.42591,-18.57036 v 0 0 q -17.53868,-17.53868 -18.57037,-45.39423 1.03169,-26.82386 18.57037,-45.39422 18.57036,-18.57037 46.42591,-18.57037 26.82386,0 45.39423,18.57037 17.53867,18.57036 18.57036,45.39422 -1.03169,27.85555 -18.57036,45.39423 -18.57037,18.57036 -45.39423,18.57036 z m 0,-15.47531 q 20.63373,-1.03168 34.04567,-14.44361 v 0 0 q 13.41193,-13.41193 14.44361,-34.04567 -1.03168,-20.63374 -14.44361,-34.04567 -13.41194,-13.41193 -34.04567,-14.44362 -20.63374,1.03169 -35.07735,14.44362 -13.41194,13.41193 -13.41194,34.04567 0,20.63374 14.44362,34.04567 13.41193,13.41193 34.04567,14.44361 z"
       id="path1" />
  </g>
</svg>
