<?xml version="1.0" encoding="UTF-8" standalone="no"?>
<!-- Created with Inkscape (http://www.inkscape.org/) -->

<svg
   width="210.10899mm"
   height="231.93997mm"
   viewBox="0 0 512 512"
   version="1.1"
   id="svg1"
   inkscape:version="1.3.2 (091e20e, 2023-11-25, custom)"
   sodipodi:docname="twitch.svg"
   xmlns:inkscape="http://www.inkscape.org/namespaces/inkscape"
   xmlns:sodipodi="http://sodipodi.sourceforge.net/DTD/sodipodi-0.dtd"
   xmlns="http://www.w3.org/2000/svg"
   xmlns:svg="http://www.w3.org/2000/svg">
  <sodipodi:namedview
     id="namedview1"
     pagecolor="#ffffff"
     bordercolor="#000000"
     borderopacity="0.25"
     inkscape:showpageshadow="2"
     inkscape:pageopacity="0.0"
     inkscape:pagecheckerboard="0"
     inkscape:deskcolor="#d1d1d1"
     inkscape:document-units="mm"
     inkscape:zoom="0.73890572"
     inkscape:cx="376.23203"
     inkscape:cy="673.29293"
     inkscape:window-width="3440"
     inkscape:window-height="1369"
     inkscape:window-x="1912"
     inkscape:window-y="-8"
     inkscape:window-maximized="1"
     inkscape:current-layer="layer1" />
  <defs
     id="defs1" />
  <g
     inkscape:label="Layer 1"
     inkscape:groupmode="layer"
     id="layer1"
     transform="translate(-23.808435,0.1915748)">
    <path
       style="fill:#b46060;fill-opacity:1;stroke:#b46060;stroke-width:0.422408px;stroke-linecap:butt;stroke-linejoin:miter;stroke-opacity:1"
       d="m 428.65106,86.981838 h -41.89643 41.89643 -41.89643 v 121.279182 0 h 41.89643 z m -116.86903,0 h -42.99897 42.99897 -42.99897 v 121.279182 0 h 42.99897 z M 130.96581,-26.579573 24.019629,73.751378 130.96581,-26.579573 24.019629,73.751378 v 363.837532 0 H 151.91404 v 0 100.33097 0 L 258.86021,437.58891 v 0 h 84.89542 v 0 L 535.59724,255.67016 v 0 -282.249733 z m 361.63246,262.404033 -84.89543,80.48528 84.89543,-80.48528 -84.89543,80.48528 h -84.89542 v 0 l -74.97258,70.56242 v 0 -70.56242 0 h -95.9208 v 0 -302.095407 0 h 340.68423 z"
       id="path1" />
  </g>
</svg>
