<?xml version="1.0" encoding="UTF-8" standalone="no"?>
<!-- Created with Inkscape (http://www.inkscape.org/) -->

<svg
   width="210.10899mm"
   height="147.80177mm"
   viewBox="0 0 512 512"
   version="1.1"
   id="svg1"
   inkscape:version="1.3.2 (091e20e, 2023-11-25, custom)"
   sodipodi:docname="youtube.svg"
   xmlns:inkscape="http://www.inkscape.org/namespaces/inkscape"
   xmlns:sodipodi="http://sodipodi.sourceforge.net/DTD/sodipodi-0.dtd"
   xmlns="http://www.w3.org/2000/svg"
   xmlns:svg="http://www.w3.org/2000/svg">
  <sodipodi:namedview
     id="namedview1"
     pagecolor="#ffffff"
     bordercolor="#000000"
     borderopacity="0.25"
     inkscape:showpageshadow="2"
     inkscape:pageopacity="0.0"
     inkscape:pagecheckerboard="0"
     inkscape:deskcolor="#d1d1d1"
     inkscape:document-units="mm"
     inkscape:zoom="0.73890575"
     inkscape:cx="925.69316"
     inkscape:cy="332.24806"
     inkscape:window-width="3440"
     inkscape:window-height="1369"
     inkscape:window-x="1912"
     inkscape:window-y="-8"
     inkscape:window-maximized="1"
     inkscape:current-layer="layer1" />
  <defs
     id="defs1" />
  <g
     inkscape:label="Layer 1"
     inkscape:groupmode="layer"
     id="layer1"
     transform="translate(0.13286384,-181.87973)">
    <path
       style="fill:#b46060;fill-opacity:1;stroke:#b46060;stroke-width:0.383123px;stroke-linecap:butt;stroke-linejoin:miter;stroke-opacity:1"
       d="m 604.93909,262.01141 q -15.98802,-49.29643 -65.28445,-65.28444 -31.97605,-6.66168 -98.59284,-10.65869 -66.61677,-2.66467 -123.90723,-3.997 -57.29042,0 -61.28744,0 -3.99701,0 -61.28744,0 -57.29044,1.33233 -123.907233,3.997 -66.6167803,3.99701 -98.592838,10.65869 -49.296421,15.98801 -65.284451,65.28444 -6.661679,30.64373 -10.658688,70.61379 -2.66467,41.30241 -3.997,73.27848 0,30.64372 0,31.97605 0,2.66468 0,33.30839 1.33233,31.97607 3.997,71.94615 3.997009,41.3024 10.658688,71.94612 15.98803,49.29642 65.284451,63.95212 31.9760577,6.66166 98.592838,10.65868 66.616793,2.66468 123.907233,3.99701 57.29043,0 61.28744,0 0,0 0,0 3.99702,0 61.28744,0 57.29046,-1.33233 123.90723,-3.99701 66.61679,-3.99702 98.59284,-10.65868 49.29643,-14.6557 65.28445,-63.95212 6.6617,-30.64372 10.6587,-71.94612 2.66466,-39.97008 3.99701,-71.94615 0,-30.64371 0,-33.30839 0,-1.33233 0,-31.97605 -1.33235,-31.97607 -3.99701,-73.27848 -3.997,-39.97006 -10.6587,-70.61379 z M 181.25633,547.13127 V 329.96054 547.13127 329.96054 l 190.52402,107.91919 v 0 z"
       id="path1" />
  </g>
</svg>
